<svg xmlns="http://www.w3.org/2000/svg" xmlns:xlink="http://www.w3.org/1999/xlink" width="1000" height="450" viewBox="0 0 1000 450"><rect width="100%" height="100%" fill="#DDDDDD"/><path d="M234.31 257.55L250.04 257.55L250.04 268.74L201.64 268.74L201.64 257.55L219.37 257.55L219.37 206.55Q219.37 203.52 219.55 200.32L219.55 200.32L206.97 210.84Q205.88 211.69 204.82 211.90Q203.76 212.11 202.82 211.93Q201.89 211.75 201.16 211.30Q200.43 210.84 200.07 210.30L200.07 210.30L195.35 203.82L222.03 181.14L234.31 181.14L234.31 257.55ZM324.76 225.00L324.76 225.00Q324.76 236.43 322.31 244.87Q319.86 253.31 315.54 258.82Q311.21 264.32 305.31 267.02Q299.41 269.71 292.58 269.71L292.58 269.71Q285.74 269.71 279.90 267.02Q274.06 264.32 269.77 258.82Q265.47 253.31 263.05 244.87Q260.63 236.43 260.63 225.00L260.63 225.00Q260.63 213.50 263.05 205.10Q265.47 196.69 269.77 191.18Q274.06 185.67 279.90 182.98Q285.74 180.29 292.58 180.29L292.58 180.29Q299.41 180.29 305.31 182.98Q311.21 185.67 315.54 191.18Q319.86 196.69 322.31 205.10Q324.76 213.50 324.76 225.00ZM309.33 225.00L309.33 225.00Q309.33 215.50 307.94 209.27Q306.55 203.04 304.22 199.35Q301.89 195.66 298.87 194.18Q295.84 192.69 292.58 192.69L292.58 192.69Q289.37 192.69 286.37 194.18Q283.38 195.66 281.08 199.35Q278.78 203.04 277.42 209.27Q276.06 215.50 276.06 225.00L276.06 225.00Q276.06 234.50 277.42 240.73Q278.78 246.96 281.08 250.65Q283.38 254.34 286.37 255.82Q289.37 257.31 292.58 257.31L292.58 257.31Q295.84 257.31 298.87 255.82Q301.89 254.34 304.22 250.65Q306.55 246.96 307.94 240.73Q309.33 234.50 309.33 225.00ZM394.94 225.00L394.94 225.00Q394.94 236.43 392.49 244.87Q390.04 253.31 385.72 258.82Q381.39 264.32 375.49 267.02Q369.59 269.71 362.76 269.71L362.76 269.71Q355.92 269.71 350.08 267.02Q344.24 264.32 339.95 258.82Q335.65 253.31 333.23 244.87Q330.81 236.43 330.81 225.00L330.81 225.00Q330.81 213.50 333.23 205.10Q335.65 196.69 339.95 191.18Q344.24 185.67 350.08 182.98Q355.92 180.29 362.76 180.29L362.76 180.29Q369.59 180.29 375.49 182.98Q381.39 185.67 385.72 191.18Q390.04 196.69 392.49 205.10Q394.94 213.50 394.94 225.00ZM379.51 225.00L379.51 225.00Q379.51 215.50 378.12 209.27Q376.73 203.04 374.40 199.35Q372.07 195.66 369.05 194.18Q366.02 192.69 362.76 192.69L362.76 192.69Q359.55 192.69 356.55 194.18Q353.56 195.66 351.26 199.35Q348.96 203.04 347.60 209.27Q346.24 215.50 346.24 225.00L346.24 225.00Q346.24 234.50 347.60 240.73Q348.96 246.96 351.26 250.65Q353.56 254.34 356.55 255.82Q359.55 257.31 362.76 257.31L362.76 257.31Q366.02 257.31 369.05 255.82Q372.07 254.34 374.40 250.65Q376.73 246.96 378.12 240.73Q379.51 234.50 379.51 225.00ZM465.12 225.00L465.12 225.00Q465.12 236.43 462.67 244.87Q460.22 253.31 455.90 258.82Q451.57 264.32 445.67 267.02Q439.77 269.71 432.94 269.71L432.94 269.71Q426.10 269.71 420.26 267.02Q414.42 264.32 410.13 258.82Q405.83 253.31 403.41 244.87Q400.99 236.43 400.99 225.00L400.99 225.00Q400.99 213.50 403.41 205.10Q405.83 196.69 410.13 191.18Q414.42 185.67 420.26 182.98Q426.10 180.29 432.94 180.29L432.94 180.29Q439.77 180.29 445.67 182.98Q451.57 185.67 455.90 191.18Q460.22 196.69 462.67 205.10Q465.12 213.50 465.12 225.00ZM449.69 225.00L449.69 225.00Q449.69 215.50 448.30 209.27Q446.91 203.04 444.58 199.35Q442.25 195.66 439.23 194.18Q436.20 192.69 432.94 192.69L432.94 192.69Q429.73 192.69 426.73 194.18Q423.74 195.66 421.44 199.35Q419.14 203.04 417.78 209.27Q416.42 215.50 416.42 225.00L416.42 225.00Q416.42 234.50 417.78 240.73Q419.14 246.96 421.44 250.65Q423.74 254.34 426.73 255.82Q429.73 257.31 432.94 257.31L432.94 257.31Q436.20 257.31 439.23 255.82Q442.25 254.34 444.58 250.65Q446.91 246.96 448.30 240.73Q449.69 234.50 449.69 225.00ZM561.20 248.72L553.27 256.52L532.76 236.01L512.07 256.64L504.14 248.84L524.84 228.09L505.11 208.36L512.98 200.50L532.70 220.22L552.30 200.62L560.29 208.48L540.63 228.15L561.20 248.72ZM613.59 235.77L640.21 235.77L640.21 207.15Q640.21 203.10 640.75 198.20L640.75 198.20L613.59 235.77ZM653.22 235.77L664.23 235.77L664.23 244.42Q664.23 245.63 663.44 246.51Q662.65 247.38 661.20 247.38L661.20 247.38L653.22 247.38L653.22 268.74L640.21 268.74L640.21 247.38L603.30 247.38Q601.79 247.38 600.64 246.45Q599.49 245.51 599.19 244.12L599.19 244.12L597.62 236.56L639.06 181.20L653.22 181.20L653.22 235.77ZM694.96 194.81L691.88 213.02Q694.78 212.42 697.44 212.14Q700.10 211.87 702.58 211.87L702.58 211.87Q709.48 211.87 714.74 213.93Q720.01 215.99 723.58 219.62Q727.15 223.25 728.96 228.12Q730.78 232.99 730.78 238.61L730.78 238.61Q730.78 245.57 728.33 251.32Q725.88 257.06 721.52 261.15Q717.16 265.23 711.21 267.47Q705.25 269.71 698.23 269.71L698.23 269.71Q694.11 269.71 690.42 268.86Q686.73 268.02 683.50 266.59Q680.26 265.17 677.51 263.33Q674.75 261.48 672.58 259.42L672.58 259.42L677.17 253.07Q678.63 251.01 680.99 251.01L680.99 251.01Q682.50 251.01 684.07 251.98Q685.64 252.95 687.67 254.10Q689.70 255.25 692.45 256.22Q695.20 257.19 699.08 257.19L699.08 257.19Q703.19 257.19 706.34 255.85Q709.48 254.52 711.57 252.13Q713.66 249.74 714.71 246.45Q715.77 243.15 715.77 239.28L715.77 239.28Q715.77 232.14 711.63 228.12Q707.48 224.09 699.38 224.09L699.38 224.09Q693.15 224.09 686.61 226.39L686.61 226.39L677.30 223.73L684.56 181.26L727.75 181.26L727.75 187.61Q727.75 190.82 725.76 192.81Q723.76 194.81 718.98 194.81L718.98 194.81L694.96 194.81ZM804.65 225.00L804.65 225.00Q804.65 236.43 802.20 244.87Q799.75 253.31 795.42 258.82Q791.10 264.32 785.20 267.02Q779.30 269.71 772.46 269.71L772.46 269.71Q765.63 269.71 759.79 267.02Q753.95 264.32 749.65 258.82Q745.36 253.31 742.94 244.87Q740.52 236.43 740.52 225.00L740.52 225.00Q740.52 213.50 742.94 205.10Q745.36 196.69 749.65 191.18Q753.95 185.67 759.79 182.98Q765.63 180.29 772.46 180.29L772.46 180.29Q779.30 180.29 785.20 182.98Q791.10 185.67 795.42 191.18Q799.75 196.69 802.20 205.10Q804.65 213.50 804.65 225.00ZM789.22 225.00L789.22 225.00Q789.22 215.50 787.83 209.27Q786.44 203.04 784.11 199.35Q781.78 195.66 778.75 194.18Q775.73 192.69 772.46 192.69L772.46 192.69Q769.26 192.69 766.26 194.18Q763.27 195.66 760.97 199.35Q758.67 203.04 757.31 209.27Q755.95 215.50 755.95 225.00L755.95 225.00Q755.95 234.50 757.31 240.73Q758.67 246.96 760.97 250.65Q763.27 254.34 766.26 255.82Q769.26 257.31 772.46 257.31L772.46 257.31Q775.73 257.31 778.75 255.82Q781.78 254.34 784.11 250.65Q786.44 246.96 787.83 240.73Q789.22 234.50 789.22 225.00Z" fill="#999999"/></svg>