<svg xmlns="http://www.w3.org/2000/svg" xmlns:xlink="http://www.w3.org/1999/xlink" width="1000" height="630" viewBox="0 0 1000 630"><rect width="100%" height="100%" fill="#DDDDDD"/><path d="M234.31 347.55L250.04 347.55L250.04 358.74L201.64 358.74L201.64 347.55L219.37 347.55L219.37 296.55Q219.37 293.52 219.55 290.32L219.55 290.32L206.97 300.84Q205.88 301.69 204.82 301.90Q203.76 302.11 202.82 301.93Q201.89 301.75 201.16 301.30Q200.43 300.84 200.07 300.30L200.07 300.30L195.35 293.82L222.03 271.14L234.31 271.14L234.31 347.55ZM324.76 315L324.76 315Q324.76 326.43 322.31 334.87Q319.86 343.31 315.54 348.82Q311.21 354.32 305.31 357.02Q299.41 359.71 292.58 359.71L292.58 359.71Q285.74 359.71 279.90 357.02Q274.06 354.32 269.77 348.82Q265.47 343.31 263.05 334.87Q260.63 326.43 260.63 315L260.63 315Q260.63 303.50 263.05 295.10Q265.47 286.69 269.77 281.18Q274.06 275.67 279.90 272.98Q285.74 270.29 292.58 270.29L292.58 270.29Q299.41 270.29 305.31 272.98Q311.21 275.67 315.54 281.18Q319.86 286.69 322.31 295.10Q324.76 303.50 324.76 315ZM309.33 315L309.33 315Q309.33 305.50 307.94 299.27Q306.55 293.04 304.22 289.35Q301.89 285.66 298.87 284.18Q295.84 282.69 292.58 282.69L292.58 282.69Q289.37 282.69 286.37 284.18Q283.38 285.66 281.08 289.35Q278.78 293.04 277.42 299.27Q276.06 305.50 276.06 315L276.06 315Q276.06 324.50 277.42 330.73Q278.78 336.96 281.08 340.65Q283.38 344.34 286.37 345.82Q289.37 347.31 292.58 347.31L292.58 347.31Q295.84 347.31 298.87 345.82Q301.89 344.34 304.22 340.65Q306.55 336.96 307.94 330.73Q309.33 324.50 309.33 315ZM394.94 315L394.94 315Q394.94 326.43 392.49 334.87Q390.04 343.31 385.72 348.82Q381.39 354.32 375.49 357.02Q369.59 359.71 362.76 359.71L362.76 359.71Q355.92 359.71 350.08 357.02Q344.24 354.32 339.95 348.82Q335.65 343.31 333.23 334.87Q330.81 326.43 330.81 315L330.81 315Q330.81 303.50 333.23 295.10Q335.65 286.69 339.95 281.18Q344.24 275.67 350.08 272.98Q355.92 270.29 362.76 270.29L362.76 270.29Q369.59 270.29 375.49 272.98Q381.39 275.67 385.72 281.18Q390.04 286.69 392.49 295.10Q394.94 303.50 394.94 315ZM379.51 315L379.51 315Q379.51 305.50 378.12 299.27Q376.73 293.04 374.40 289.35Q372.07 285.66 369.05 284.18Q366.02 282.69 362.76 282.69L362.76 282.69Q359.55 282.69 356.55 284.18Q353.56 285.66 351.26 289.35Q348.96 293.04 347.60 299.27Q346.24 305.50 346.24 315L346.24 315Q346.24 324.50 347.60 330.73Q348.96 336.96 351.26 340.65Q353.56 344.34 356.55 345.82Q359.55 347.31 362.76 347.31L362.76 347.31Q366.02 347.31 369.05 345.82Q372.07 344.34 374.40 340.65Q376.73 336.96 378.12 330.73Q379.51 324.50 379.51 315ZM465.12 315L465.12 315Q465.12 326.43 462.67 334.87Q460.22 343.31 455.90 348.82Q451.57 354.32 445.67 357.02Q439.77 359.71 432.94 359.71L432.94 359.71Q426.10 359.71 420.26 357.02Q414.42 354.32 410.13 348.82Q405.83 343.31 403.41 334.87Q400.99 326.43 400.99 315L400.99 315Q400.99 303.50 403.41 295.10Q405.83 286.69 410.13 281.18Q414.42 275.67 420.26 272.98Q426.10 270.29 432.94 270.29L432.94 270.29Q439.77 270.29 445.67 272.98Q451.57 275.67 455.90 281.18Q460.22 286.69 462.67 295.10Q465.12 303.50 465.12 315ZM449.69 315L449.69 315Q449.69 305.50 448.30 299.27Q446.91 293.04 444.58 289.35Q442.25 285.66 439.23 284.18Q436.20 282.69 432.94 282.69L432.94 282.69Q429.73 282.69 426.73 284.18Q423.74 285.66 421.44 289.35Q419.14 293.04 417.78 299.27Q416.42 305.50 416.42 315L416.42 315Q416.42 324.50 417.78 330.73Q419.14 336.96 421.44 340.65Q423.74 344.34 426.73 345.82Q429.73 347.31 432.94 347.31L432.94 347.31Q436.20 347.31 439.23 345.82Q442.25 344.34 444.58 340.65Q446.91 336.96 448.30 330.73Q449.69 324.50 449.69 315ZM561.20 338.72L553.27 346.52L532.76 326.01L512.07 346.64L504.14 338.84L524.84 318.09L505.11 298.36L512.98 290.50L532.70 310.22L552.30 290.62L560.29 298.48L540.63 318.15L561.20 338.72ZM654.67 271.26L628.71 303.02L625.69 306.77Q628.23 305.50 631.16 304.81Q634.10 304.11 637.49 304.11L637.49 304.11Q642.45 304.11 647.14 305.74Q651.82 307.38 655.39 310.67Q658.96 313.97 661.14 318.87Q663.32 323.77 663.32 330.31L663.32 330.31Q663.32 336.42 661.08 341.77Q658.84 347.13 654.79 351.12Q650.74 355.11 645.02 357.41Q639.30 359.71 632.40 359.71L632.40 359.71Q625.39 359.71 619.82 357.47Q614.25 355.23 610.32 351.21Q606.39 347.19 604.30 341.53Q602.21 335.87 602.21 328.98L602.21 328.98Q602.21 322.80 604.73 316.30Q607.24 309.80 612.50 302.78L612.50 302.78L633.37 274.77Q634.46 273.32 636.55 272.29Q638.64 271.26 641.36 271.26L641.36 271.26L654.67 271.26ZM632.10 347.49L632.10 347.49Q635.67 347.49 638.67 346.28Q641.66 345.07 643.81 342.89Q645.96 340.71 647.17 337.78Q648.38 334.84 648.38 331.40L648.38 331.40Q648.38 327.64 647.23 324.65Q646.08 321.65 643.96 319.57Q641.84 317.48 638.88 316.39Q635.91 315.30 632.34 315.30L632.34 315.30Q628.77 315.30 625.87 316.51Q622.97 317.72 620.91 319.87Q618.85 322.02 617.70 324.95Q616.55 327.89 616.55 331.27L616.55 331.27Q616.55 334.90 617.55 337.90Q618.55 340.89 620.52 343.01Q622.48 345.13 625.39 346.31Q628.29 347.49 632.10 347.49ZM681.71 297.03L673.85 295.64Q674.75 289.35 677.36 284.60Q679.96 279.85 683.86 276.67Q687.76 273.50 692.81 271.89Q697.87 270.29 703.67 270.29L703.67 270.29Q709.72 270.29 714.59 272.01Q719.46 273.74 722.91 276.79Q726.36 279.85 728.21 283.96Q730.05 288.08 730.05 292.86L730.05 292.86Q730.05 297.03 729.11 300.21Q728.18 303.38 726.42 305.74Q724.67 308.10 722.07 309.74Q719.46 311.37 716.20 312.46L716.20 312.46Q724.06 314.94 727.93 320.02Q731.81 325.10 731.81 332.79L731.81 332.79Q731.81 339.32 729.39 344.34Q726.97 349.36 722.85 352.78Q718.74 356.20 713.32 357.95Q707.91 359.71 701.86 359.71L701.86 359.71Q695.26 359.71 690.36 358.20Q685.46 356.68 681.83 353.72Q678.20 350.76 675.66 346.46Q673.12 342.16 671.31 336.54L671.31 336.54L677.90 333.82Q680.50 332.73 682.77 333.24Q685.04 333.75 686.07 335.69L686.07 335.69Q687.16 337.81 688.46 339.87Q689.76 341.92 691.57 343.53Q693.39 345.13 695.84 346.13Q698.29 347.13 701.68 347.13L701.68 347.13Q705.49 347.13 708.33 345.89Q711.18 344.64 713.08 342.65Q714.99 340.65 715.92 338.20Q716.86 335.75 716.86 333.27L716.86 333.27Q716.86 330.13 716.20 327.55Q715.53 324.98 713.41 323.17Q711.30 321.35 707.33 320.32Q703.37 319.30 696.72 319.30L696.72 319.30L696.72 308.65Q702.22 308.59 705.85 307.62Q709.48 306.65 711.63 304.93Q713.78 303.20 714.62 300.78Q715.47 298.36 715.47 295.46L715.47 295.46Q715.47 289.29 712.02 286.08Q708.57 282.87 702.83 282.87L702.83 282.87Q700.16 282.87 697.93 283.63Q695.69 284.39 693.90 285.75Q692.12 287.11 690.91 288.92Q689.70 290.74 689.09 292.92L689.09 292.92Q688.06 295.70 686.40 296.61Q684.74 297.52 681.71 297.03L681.71 297.03ZM804.65 315L804.65 315Q804.65 326.43 802.20 334.87Q799.75 343.31 795.42 348.82Q791.10 354.32 785.20 357.02Q779.30 359.71 772.46 359.71L772.46 359.71Q765.63 359.71 759.79 357.02Q753.95 354.32 749.65 348.82Q745.36 343.31 742.94 334.87Q740.52 326.43 740.52 315L740.52 315Q740.52 303.50 742.94 295.10Q745.36 286.69 749.65 281.18Q753.95 275.67 759.79 272.98Q765.63 270.29 772.46 270.29L772.46 270.29Q779.30 270.29 785.20 272.98Q791.10 275.67 795.42 281.18Q799.75 286.69 802.20 295.10Q804.65 303.50 804.65 315ZM789.22 315L789.22 315Q789.22 305.50 787.83 299.27Q786.44 293.04 784.11 289.35Q781.78 285.66 778.75 284.18Q775.73 282.69 772.46 282.69L772.46 282.69Q769.26 282.69 766.26 284.18Q763.27 285.66 760.97 289.35Q758.67 293.04 757.31 299.27Q755.95 305.50 755.95 315L755.95 315Q755.95 324.50 757.31 330.73Q758.67 336.96 760.97 340.65Q763.27 344.34 766.26 345.82Q769.26 347.31 772.46 347.31L772.46 347.31Q775.73 347.31 778.75 345.82Q781.78 344.34 784.11 340.65Q786.44 336.96 787.83 330.73Q789.22 324.50 789.22 315Z" fill="#999999"/></svg>