<svg width="15" height="17" viewBox="0 0 15 17" fill="none" xmlns="http://www.w3.org/2000/svg">
<path d="M0.328527 14.5691C0.269862 14.5048 0.264197 14.4145 0.265863 14.3321C0.268197 13.9975 0.264197 13.6628 0.267863 13.3285C0.266197 13.2202 0.340194 13.1155 0.443524 13.0822C0.509855 13.0602 0.57852 13.0452 0.646518 13.0285C0.590186 12.9262 0.498189 12.8255 0.516522 12.7002C0.522855 12.6175 0.580853 12.5549 0.636851 12.4995C0.870511 12.2679 1.10184 12.0335 1.33583 11.8019C1.40883 11.7226 1.53016 11.6889 1.63115 11.7322C1.70082 11.7626 1.76348 11.8059 1.82848 11.8449C1.85815 11.6919 1.90748 11.4859 2.09614 11.4692C2.45313 11.4596 2.81078 11.4679 3.16811 11.4652C3.27177 11.4579 3.37977 11.5066 3.43043 11.5996C3.4681 11.6769 3.4811 11.7629 3.5031 11.8452C3.60509 11.7886 3.70509 11.6979 3.83009 11.7152C3.91275 11.7216 3.97608 11.7789 4.03108 11.8349C4.26307 12.0685 4.49773 12.2995 4.72872 12.5339C4.80706 12.6059 4.84205 12.7245 4.80139 12.8252C4.77039 12.8969 4.72639 12.9618 4.68639 13.0285C4.84039 13.0565 5.04572 13.1068 5.06238 13.2958C5.07205 13.6515 5.06338 14.0082 5.06638 14.3641C5.07405 14.4691 5.02605 14.5791 4.93105 14.6301C4.85439 14.6668 4.76906 14.6798 4.68739 14.7015C4.74372 14.8041 4.83339 14.9055 4.81606 15.0308C4.80939 15.1044 4.76306 15.1641 4.71206 15.2138C4.4744 15.4501 4.23807 15.6878 4.00075 15.9248C3.93475 15.9968 3.83142 16.0358 3.73509 16.0101C3.65076 15.9824 3.57876 15.9291 3.5031 15.8851C3.4711 15.9944 3.46543 16.1254 3.37077 16.2027C3.30644 16.2611 3.21644 16.2674 3.13411 16.2657C2.79978 16.2634 2.46513 16.2674 2.13047 16.2637C2.02181 16.2657 1.91615 16.1917 1.88348 16.0878C1.86181 16.0211 1.84715 15.9528 1.83081 15.8848C1.72748 15.9411 1.62649 16.0338 1.50016 16.0151C1.42549 16.0088 1.3655 15.9601 1.3155 15.9088C1.08017 15.6714 0.842845 15.4358 0.606852 15.1994C0.534521 15.1338 0.496189 15.0308 0.521522 14.9348C0.548854 14.8501 0.601519 14.7775 0.645518 14.7011C0.536188 14.6698 0.405525 14.6641 0.328527 14.5691ZM0.802513 14.1921C0.919509 14.2228 1.03917 14.2448 1.1545 14.2825C1.2785 14.3245 1.3545 14.4685 1.31916 14.5948C1.27783 14.7278 1.17017 14.8301 1.1255 14.9598C1.27216 15.1151 1.42783 15.2614 1.57682 15.4148C1.74482 15.3368 1.90615 15.1458 2.10747 15.2271C2.30013 15.3144 2.2828 15.5594 2.34113 15.7314C2.55813 15.7321 2.77479 15.7318 2.99145 15.7314C3.05078 15.5598 3.03378 15.3134 3.22677 15.2268C3.42943 15.1451 3.58943 15.3391 3.75975 15.4141C3.90942 15.2588 4.06308 15.1078 4.21574 14.9555C4.13974 14.7855 3.94442 14.6248 4.02908 14.4225C4.11674 14.2308 4.3614 14.2505 4.53273 14.1908C4.5334 13.9735 4.5334 13.7565 4.53273 13.5395C4.3614 13.4765 4.11374 13.5022 4.02675 13.3075C3.94708 13.1082 4.13208 12.9452 4.21507 12.7815C4.06575 12.6235 3.90808 12.4732 3.75575 12.3182C3.58743 12.3965 3.4261 12.5882 3.22444 12.5059C3.03111 12.4185 3.05444 12.1725 2.99211 12.0015C2.77479 12.0009 2.55779 12.0009 2.34047 12.0019C2.2788 12.1725 2.30113 12.4165 2.10947 12.5055C1.90748 12.5889 1.74548 12.3965 1.57716 12.3182C1.42483 12.4742 1.2655 12.6229 1.11784 12.7832C1.2025 12.9455 1.38549 13.1095 1.30583 13.3085C1.21817 13.5002 0.973841 13.4815 0.802513 13.5405C0.801513 13.7578 0.801846 13.9748 0.802513 14.1921Z" fill="black"/>
<path d="M0.645982 3.50223C0.500986 3.47223 0.311993 3.4369 0.27566 3.26557C0.255328 2.94424 0.273327 2.62092 0.26666 2.29893C0.269993 2.1856 0.24666 2.05427 0.328991 1.96194C0.406322 1.86694 0.537652 1.86128 0.646982 1.82928C0.564318 1.70228 0.451321 1.53695 0.558651 1.38929C0.773645 1.1513 1.0113 0.933306 1.2353 0.703313C1.31329 0.629315 1.38463 0.528319 1.50062 0.516319C1.62595 0.497653 1.72728 0.588317 1.82894 0.645649C1.85861 0.491987 1.90861 0.284993 2.0986 0.269993C2.47759 0.263327 2.85725 0.262993 3.23623 0.269993C3.42523 0.286659 3.47556 0.491986 3.50356 0.645981C3.60589 0.589316 3.70689 0.497986 3.83255 0.516319C3.91488 0.523319 3.97755 0.581317 4.03288 0.636982C4.26454 0.870308 4.49886 1.10097 4.72986 1.33496C4.80852 1.40796 4.84319 1.52829 4.80052 1.62895C4.76952 1.69962 4.72619 1.76361 4.68686 1.82928C4.83985 1.85761 5.04385 1.90628 5.06251 2.0936C5.07351 2.41726 5.06284 2.74125 5.06751 3.06491C5.06618 3.16824 5.07951 3.28657 5.00485 3.36956C4.92818 3.46489 4.79719 3.47089 4.68786 3.50223C4.74419 3.60456 4.83352 3.70555 4.81685 3.83055C4.81019 3.90521 4.76252 3.96588 4.71119 4.01588C4.47286 4.25254 4.23654 4.49086 3.99855 4.72785C3.93255 4.79919 3.82955 4.83652 3.73389 4.81052C3.65056 4.78252 3.57889 4.72986 3.50356 4.68586C3.47589 4.83985 3.42523 5.04618 3.2359 5.06185C2.87925 5.07118 2.52192 5.06318 2.16527 5.06585C2.05361 5.07484 1.93661 5.01651 1.89228 4.91085C1.86461 4.83819 1.85028 4.76119 1.83128 4.68552C1.70362 4.76752 1.53762 4.88218 1.38963 4.77385C1.15263 4.55753 0.933973 4.3202 0.703647 4.09654C0.629649 4.01854 0.528652 3.94788 0.516986 3.83222C0.498653 3.70655 0.589984 3.60522 0.645982 3.50223ZM0.802644 2.99291C0.974305 3.05291 1.21863 3.03324 1.30629 3.22557C1.38829 3.42723 1.19696 3.58822 1.11863 3.75589C1.2713 3.90921 1.42496 4.06154 1.57729 4.21554C1.74561 4.13721 1.90794 3.94488 2.10994 4.02854C2.30093 4.11721 2.28326 4.36087 2.34193 4.53219C2.55859 4.53253 2.77525 4.53286 2.99191 4.53219C3.05091 4.35953 3.03424 4.11354 3.2279 4.02621C3.4289 3.94621 3.59022 4.13554 3.75755 4.21421C3.91021 4.06221 4.06021 3.90788 4.21554 3.75889C4.14354 3.58689 3.94488 3.42823 4.02854 3.2249C4.11554 3.03191 4.36153 3.05157 4.53319 2.99124C4.53353 2.77425 4.53386 2.55726 4.53286 2.33993C4.36187 2.27993 4.11787 2.29926 4.02888 2.10894C3.94388 1.90728 4.13587 1.74328 4.21521 1.57495C4.05921 1.42329 3.91021 1.2643 3.75089 1.11597C3.58822 1.19896 3.42656 1.38296 3.22824 1.30529C3.03157 1.21996 3.05524 0.971638 2.99258 0.799644C2.77525 0.799644 2.55826 0.800977 2.34126 0.80231C2.27927 0.973638 2.3016 1.21763 2.1096 1.30629C1.90961 1.38862 1.74628 1.20063 1.58162 1.11897C1.42362 1.26763 1.27496 1.42596 1.11863 1.57629C1.19596 1.74528 1.38763 1.90661 1.30629 2.1086C1.2193 2.30126 0.974305 2.28193 0.802977 2.3416C0.801977 2.55859 0.802311 2.77558 0.802644 2.99291Z" fill="black"/>
<path d="M1.62208 14.0809C1.50009 13.5546 1.84841 12.979 2.36973 12.8406C2.87104 12.6836 3.45469 12.9636 3.64869 13.4509C3.85935 13.9226 3.66069 14.5249 3.21237 14.7806C2.78705 15.0449 2.1854 14.9496 1.86341 14.5662C1.74274 14.4289 1.65875 14.2599 1.62208 14.0809ZM2.14173 13.9583C2.1844 14.2309 2.46406 14.4362 2.73738 14.3922C3.00771 14.3622 3.22203 14.0993 3.19803 13.8286C3.1857 13.5343 2.89271 13.2899 2.60038 13.3363C2.30673 13.3646 2.0824 13.6693 2.14173 13.9583Z" fill="black"/>
<path d="M1.62248 2.88353C1.49681 2.34588 1.86247 1.75857 2.39979 1.63357C2.90344 1.49024 3.47775 1.78557 3.65908 2.27589C3.85341 2.74354 3.65308 3.32819 3.21443 3.58018C2.78244 3.85084 2.16746 3.74651 1.84814 3.34952C1.73647 3.21586 1.65781 3.0542 1.62248 2.88353ZM2.14179 2.75787C2.18379 3.03086 2.46345 3.23686 2.73677 3.19319C2.9941 3.16419 3.20443 2.92453 3.19909 2.66521C3.20876 2.35622 2.90377 2.08656 2.59778 2.13722C2.30579 2.16689 2.08313 2.46988 2.14179 2.75787Z" fill="black"/>
<path d="M3.31197 9.10193C3.16631 9.07193 2.97532 9.0356 2.94098 8.86193C2.92232 8.49728 2.93832 8.13062 2.93299 7.76497C2.92499 7.66064 2.97365 7.55198 3.06765 7.50131C3.14465 7.46398 3.23064 7.45098 3.31297 7.42898C3.25631 7.32632 3.16398 7.22565 3.18298 7.09966C3.18964 7.01766 3.24731 6.95566 3.30297 6.90033C3.53663 6.66834 3.76829 6.43401 4.00262 6.20235C4.07528 6.12302 4.19628 6.08935 4.29694 6.13235C4.36661 6.16302 4.42994 6.20635 4.49494 6.24535C4.52494 6.09235 4.5736 5.88669 4.76226 5.86969C5.11958 5.86003 5.47724 5.86836 5.8349 5.86569C5.93823 5.85869 6.04622 5.90703 6.09689 6.00002C6.13455 6.07735 6.14755 6.16335 6.16955 6.24568C6.27188 6.18902 6.37288 6.09735 6.49854 6.11602C6.58054 6.12302 6.6432 6.18068 6.6982 6.23602C6.92953 6.46934 7.16385 6.7 7.39485 6.93366C7.47418 7.00666 7.50951 7.12765 7.46618 7.22898C7.43518 7.29932 7.39218 7.36331 7.35285 7.42898C7.49818 7.45931 7.68884 7.49564 7.72417 7.66797C7.7445 7.9893 7.7265 8.31295 7.73317 8.63494C7.73017 8.74694 7.75217 8.8766 7.67151 8.96826C7.59484 9.06426 7.46351 9.07026 7.35385 9.10193C7.44085 9.23259 7.55251 9.41258 7.42885 9.55825C7.20119 9.79857 6.96053 10.0269 6.7292 10.2639C6.66387 10.3289 6.59687 10.4069 6.49854 10.4156C6.37288 10.4342 6.27222 10.3419 6.16955 10.2856C6.14155 10.4392 6.09189 10.6449 5.90289 10.6615C5.54657 10.6712 5.18925 10.6629 4.83226 10.6655C4.72793 10.6732 4.61893 10.6252 4.56827 10.5312C4.53127 10.4539 4.51894 10.3676 4.49727 10.2852C4.39494 10.3412 4.29494 10.4326 4.16961 10.4159C4.09462 10.4102 4.03328 10.3622 3.98295 10.3102C3.75696 10.0832 3.53063 9.85624 3.30331 9.63058C3.24731 9.57591 3.18931 9.51325 3.18298 9.43092C3.16498 9.30559 3.25598 9.20459 3.31197 9.10193ZM3.46897 8.59261C3.6403 8.65227 3.88429 8.63328 3.97195 8.82494C4.05295 9.0236 3.86796 9.18692 3.78429 9.34959C3.93129 9.51058 4.09162 9.65824 4.24294 9.81491C4.41127 9.73757 4.5726 9.54558 4.77426 9.62758C4.96659 9.71524 4.94926 9.9599 5.00792 10.1319C5.22458 10.1322 5.44124 10.1326 5.6579 10.1319C5.7169 9.9599 5.70023 9.71491 5.89189 9.62658C6.09389 9.54391 6.25588 9.73624 6.42454 9.81357C6.57621 9.66024 6.72854 9.50758 6.8822 9.35592C6.8062 9.18626 6.61087 9.0256 6.6952 8.82294C6.7832 8.63128 7.02786 8.65094 7.19919 8.59094C7.19952 8.37395 7.19985 8.15696 7.19885 7.93996C7.02753 7.87963 6.78253 7.89896 6.6942 7.7073C6.61054 7.50564 6.8022 7.34265 6.8812 7.17465C6.72587 7.02266 6.57621 6.865 6.41788 6.716C6.25422 6.79733 6.09255 6.98333 5.89356 6.90466C5.69723 6.819 5.72157 6.57101 5.65823 6.39934C5.44124 6.39968 5.22425 6.40068 5.00726 6.40201C4.94526 6.57334 4.96759 6.81766 4.77526 6.90633C4.57227 6.98999 4.41194 6.79433 4.24128 6.71933C4.09095 6.87233 3.94029 7.02533 3.78529 7.17332C3.85862 7.34465 4.05328 7.50364 3.97329 7.7063C3.88696 7.90063 3.64096 7.88163 3.46897 7.9413C3.46797 8.15829 3.4683 8.37528 3.46897 8.59261Z" fill="black"/>
<path d="M4.29006 8.48163C4.1654 7.94465 4.53172 7.358 5.06837 7.23334C5.55403 7.09701 6.10734 7.36433 6.306 7.82699C6.52433 8.28564 6.35167 8.88195 5.92335 9.15428C5.51103 9.4396 4.90371 9.37094 4.56406 9.00262C4.42606 8.85929 4.33006 8.67663 4.29006 8.48163ZM4.80938 8.3573C4.85138 8.63096 5.13171 8.83729 5.4057 8.79296C5.66302 8.76362 5.87235 8.52396 5.86702 8.26497C5.87635 7.95631 5.57169 7.68666 5.26637 7.73732C4.97404 7.76665 4.75138 8.06931 4.80938 8.3573Z" fill="black"/>
<path d="M5.59961 14.1309C5.59961 13.9533 5.59961 13.7756 5.59961 13.5976C5.88893 13.5946 6.17859 13.6033 6.46792 13.5936C6.86957 13.5699 7.20756 13.1996 7.19889 12.798C7.20023 12.087 7.19889 11.3757 7.19956 10.6644C7.37722 10.6644 7.55488 10.6644 7.73288 10.6644C7.73254 11.3753 7.73354 12.0863 7.73221 12.7973C7.73221 13.1306 7.60221 13.4616 7.37422 13.7046C7.13456 13.9649 6.78724 14.1226 6.43325 14.1296C6.15526 14.1329 5.8776 14.1299 5.59961 14.1309Z" fill="black"/>
<path d="M5.59961 2.93217C5.59961 2.75451 5.59961 2.57685 5.59961 2.39885C5.87727 2.39985 6.15526 2.39652 6.43292 2.40052C6.78691 2.40752 7.13323 2.56518 7.37389 2.82451C7.60255 3.06783 7.73254 3.39882 7.73221 3.73248C7.73354 4.44346 7.73254 5.15444 7.73288 5.86541C7.55488 5.86541 7.37722 5.86541 7.19956 5.86541C7.19789 5.14244 7.20223 4.41913 7.19756 3.69615C7.18989 3.30749 6.85724 2.96117 6.46992 2.9365C6.17992 2.92617 5.8896 2.93517 5.59961 2.93217Z" fill="black"/>
<path d="M14.4058 14.5691C14.4645 14.5048 14.4702 14.4145 14.4685 14.3321C14.4662 13.9975 14.4702 13.6628 14.4665 13.3285C14.4682 13.2202 14.3942 13.1155 14.2909 13.0822C14.2245 13.0602 14.1559 13.0452 14.0879 13.0285C14.1442 12.9262 14.2362 12.8255 14.2179 12.7002C14.2115 12.6175 14.1535 12.5549 14.0975 12.4995C13.8639 12.2679 13.6325 12.0335 13.3985 11.8019C13.3255 11.7226 13.2042 11.6889 13.1032 11.7322C13.0336 11.7626 12.9709 11.8059 12.9059 11.8449C12.8762 11.6919 12.8269 11.4859 12.6382 11.4692C12.2812 11.4596 11.9236 11.4679 11.5663 11.4652C11.4626 11.4579 11.3546 11.5066 11.3039 11.5996C11.2663 11.6769 11.2533 11.7629 11.2313 11.8452C11.1293 11.7886 11.0293 11.6979 10.9043 11.7152C10.8216 11.7216 10.7583 11.7789 10.7033 11.8349C10.4713 12.0685 10.2366 12.2995 10.0057 12.5339C9.92732 12.6059 9.89232 12.7245 9.93299 12.8252C9.96398 12.8969 10.008 12.9618 10.048 13.0285C9.89399 13.0565 9.68866 13.1068 9.67199 13.2958C9.66233 13.6515 9.67099 14.0082 9.66799 14.3641C9.66033 14.4691 9.70833 14.5791 9.80332 14.6301C9.87999 14.6668 9.96532 14.6798 10.047 14.7015C9.99065 14.8041 9.90099 14.9055 9.91832 15.0308C9.92499 15.1044 9.97132 15.1641 10.0223 15.2138C10.26 15.4501 10.4963 15.6878 10.7336 15.9248C10.7996 15.9968 10.903 16.0358 10.9993 16.0101C11.0836 15.9824 11.1556 15.9291 11.2313 15.8851C11.2633 15.9944 11.2689 16.1254 11.3636 16.2027C11.4279 16.2611 11.5179 16.2674 11.6003 16.2657C11.9346 16.2634 12.2692 16.2674 12.6039 16.2637C12.7126 16.2657 12.8182 16.1917 12.8509 16.0878C12.8726 16.0211 12.8872 15.9528 12.9036 15.8848C13.0069 15.9411 13.1079 16.0338 13.2342 16.0151C13.3089 16.0088 13.3689 15.9601 13.4189 15.9088C13.6542 15.6714 13.8915 15.4358 14.1275 15.1994C14.1999 15.1338 14.2382 15.0308 14.2129 14.9348C14.1855 14.8501 14.1329 14.7775 14.0889 14.7011C14.1982 14.6698 14.3289 14.6641 14.4058 14.5691ZM13.9319 14.1921C13.8149 14.2228 13.6952 14.2448 13.5799 14.2825C13.4559 14.3245 13.3799 14.4685 13.4152 14.5948C13.4565 14.7278 13.5642 14.8301 13.6089 14.9598C13.4622 15.1151 13.3065 15.2614 13.1576 15.4148C12.9896 15.3368 12.8282 15.1458 12.6269 15.2271C12.4342 15.3144 12.4516 15.5594 12.3932 15.7314C12.1762 15.7321 11.9596 15.7318 11.7429 15.7314C11.6836 15.5598 11.7006 15.3134 11.5076 15.2268C11.3049 15.1451 11.1449 15.3391 10.9746 15.4141C10.825 15.2588 10.6713 15.1078 10.5186 14.9555C10.5946 14.7855 10.79 14.6248 10.7053 14.4225C10.6176 14.2308 10.373 14.2505 10.2016 14.1908C10.201 13.9735 10.201 13.7565 10.2016 13.5395C10.373 13.4765 10.6206 13.5022 10.7076 13.3075C10.7873 13.1082 10.6023 12.9452 10.5193 12.7815C10.6686 12.6235 10.8263 12.4732 10.9786 12.3182C11.1469 12.3965 11.3083 12.5882 11.5099 12.5059C11.7033 12.4185 11.6799 12.1725 11.7423 12.0015C11.9596 12.0009 12.1766 12.0009 12.3939 12.0019C12.4556 12.1725 12.4332 12.4165 12.6249 12.5055C12.8269 12.5889 12.9889 12.3965 13.1572 12.3182C13.3095 12.4742 13.4689 12.6229 13.6165 12.7832C13.5319 12.9455 13.3489 13.1095 13.4285 13.3085C13.5162 13.5002 13.7605 13.4815 13.9319 13.5405C13.9329 13.7578 13.9325 13.9748 13.9319 14.1921Z" fill="black"/>
<path d="M14.0884 3.50223C14.2334 3.47223 14.4224 3.4369 14.4587 3.26557C14.479 2.94424 14.461 2.62092 14.4677 2.29893C14.4644 2.1856 14.4877 2.05427 14.4054 1.96194C14.3281 1.86694 14.1967 1.86128 14.0874 1.82928C14.1701 1.70228 14.2831 1.53695 14.1757 1.38929C13.9607 1.1513 13.7231 0.933306 13.4991 0.703313C13.4211 0.629315 13.3497 0.528319 13.2338 0.516319C13.1084 0.497653 13.0071 0.588317 12.9054 0.645649C12.8758 0.491987 12.8258 0.284993 12.6358 0.269993C12.2568 0.263327 11.8771 0.262993 11.4981 0.269993C11.3091 0.286659 11.2588 0.491986 11.2308 0.645981C11.1285 0.589316 11.0275 0.497986 10.9018 0.516319C10.8195 0.523319 10.7568 0.581317 10.7015 0.636982C10.4698 0.870308 10.2355 1.10097 10.0045 1.33496C9.92585 1.40796 9.89119 1.52829 9.93385 1.62895C9.96485 1.69962 10.0082 1.76361 10.0475 1.82928C9.89452 1.85761 9.69053 1.90628 9.67186 2.0936C9.66086 2.41726 9.67153 2.74125 9.66686 3.06491C9.6682 3.16824 9.65486 3.28657 9.72953 3.36956C9.80619 3.46489 9.93719 3.47089 10.0465 3.50223C9.99019 3.60456 9.90086 3.70555 9.91752 3.83055C9.92419 3.90521 9.97185 3.96588 10.0232 4.01588C10.2615 4.25254 10.4978 4.49086 10.7358 4.72785C10.8018 4.79919 10.9048 4.83652 11.0005 4.81052C11.0838 4.78252 11.1555 4.72986 11.2308 4.68586C11.2585 4.83985 11.3091 5.04618 11.4985 5.06185C11.8551 5.07118 12.2125 5.06318 12.5691 5.06585C12.6808 5.07484 12.7978 5.01651 12.8421 4.91085C12.8698 4.83819 12.8841 4.76119 12.9031 4.68552C13.0308 4.76752 13.1968 4.88218 13.3447 4.77385C13.5817 4.55753 13.8004 4.3202 14.0307 4.09654C14.1047 4.01854 14.2057 3.94788 14.2174 3.83222C14.2357 3.70655 14.1444 3.60522 14.0884 3.50223ZM13.9317 2.99291C13.7601 3.05291 13.5157 3.03324 13.4281 3.22557C13.3461 3.42723 13.5374 3.58822 13.6157 3.75589C13.4631 3.90921 13.3094 4.06154 13.1571 4.21554C12.9888 4.13721 12.8264 3.94488 12.6244 4.02854C12.4334 4.11721 12.4511 4.36087 12.3924 4.53219C12.1758 4.53253 11.9591 4.53286 11.7425 4.53219C11.6835 4.35953 11.7001 4.11354 11.5065 4.02621C11.3055 3.94621 11.1442 4.13554 10.9768 4.21421C10.8242 4.06221 10.6742 3.90788 10.5188 3.75889C10.5908 3.58689 10.7895 3.42823 10.7058 3.2249C10.6188 3.03191 10.3728 3.05157 10.2012 2.99124C10.2008 2.77425 10.2005 2.55726 10.2015 2.33993C10.3725 2.27993 10.6165 2.29926 10.7055 2.10894C10.7905 1.90728 10.5985 1.74328 10.5192 1.57495C10.6752 1.42329 10.8242 1.2643 10.9835 1.11597C11.1462 1.19896 11.3078 1.38296 11.5061 1.30529C11.7028 1.21996 11.6791 0.971638 11.7418 0.799644C11.9591 0.799644 12.1761 0.800977 12.3931 0.80231C12.4551 0.973638 12.4328 1.21763 12.6248 1.30629C12.8248 1.38862 12.9881 1.20063 13.1528 1.11897C13.3108 1.26763 13.4594 1.42596 13.6157 1.57629C13.5384 1.74528 13.3467 1.90661 13.4281 2.1086C13.5151 2.30126 13.7601 2.28193 13.9314 2.3416C13.9324 2.55859 13.9321 2.77558 13.9317 2.99291Z" fill="black"/>
<path d="M13.1123 14.0809C13.2343 13.5546 12.886 12.979 12.3646 12.8406C11.8633 12.6836 11.2797 12.9636 11.0857 13.4509C10.875 13.9226 11.0737 14.5249 11.522 14.7806C11.9473 15.0449 12.549 14.9496 12.871 14.5662C12.9916 14.4289 13.0756 14.2599 13.1123 14.0809ZM12.5926 13.9583C12.55 14.2309 12.2703 14.4362 11.997 14.3922C11.7267 14.3622 11.5123 14.0993 11.5363 13.8286C11.5487 13.5343 11.8417 13.2899 12.134 13.3363C12.4276 13.3646 12.652 13.6693 12.5926 13.9583Z" fill="black"/>
<path d="M13.1119 2.88353C13.2376 2.34588 12.8719 1.75857 12.3346 1.63357C11.8309 1.49024 11.2566 1.78557 11.0753 2.27589C10.881 2.74354 11.0813 3.32819 11.5199 3.58018C11.9519 3.85084 12.5669 3.74651 12.8862 3.34952C12.9979 3.21586 13.0766 3.0542 13.1119 2.88353ZM12.5926 2.75787C12.5506 3.03086 12.2709 3.23686 11.9976 3.19319C11.7403 3.16419 11.5299 2.92453 11.5353 2.66521C11.5256 2.35622 11.8306 2.08656 12.1366 2.13722C12.4286 2.16689 12.6512 2.46988 12.5926 2.75787Z" fill="black"/>
<path d="M11.4224 9.10193C11.5681 9.07193 11.7591 9.0356 11.7934 8.86193C11.8121 8.49728 11.7961 8.13062 11.8014 7.76497C11.8094 7.66064 11.7607 7.55198 11.6667 7.50131C11.5897 7.46398 11.5037 7.45098 11.4214 7.42898C11.4781 7.32632 11.5704 7.22565 11.5514 7.09966C11.5447 7.01766 11.4871 6.95566 11.4314 6.90033C11.1977 6.66834 10.9661 6.43401 10.7318 6.20235C10.6591 6.12302 10.5381 6.08935 10.4374 6.13235C10.3678 6.16302 10.3044 6.20635 10.2394 6.24535C10.2094 6.09235 10.1608 5.88669 9.97211 5.86969C9.61479 5.86003 9.25713 5.86836 8.89948 5.86569C8.79615 5.85869 8.68815 5.90703 8.63749 6.00002C8.59982 6.07735 8.58682 6.16335 8.56482 6.24568C8.46249 6.18902 8.3615 6.09735 8.23583 6.11602C8.15384 6.12302 8.09117 6.18068 8.03617 6.23602C7.80485 6.46934 7.57052 6.7 7.33953 6.93366C7.2602 7.00666 7.22486 7.12765 7.2682 7.22898C7.2992 7.29932 7.34219 7.36331 7.38153 7.42898C7.2362 7.45931 7.04554 7.49564 7.0102 7.66797C6.98987 7.9893 7.00787 8.31295 7.0012 8.63494C7.0042 8.74694 6.9822 8.8766 7.06287 8.96826C7.13953 9.06426 7.27086 9.07026 7.38053 9.10193C7.29353 9.23259 7.18187 9.41258 7.30553 9.55825C7.53319 9.79857 7.77385 10.0269 8.00517 10.2639C8.0705 10.3289 8.1375 10.4069 8.23583 10.4156C8.3615 10.4342 8.46216 10.3419 8.56482 10.2856C8.59282 10.4392 8.64249 10.6449 8.83148 10.6615C9.1878 10.6712 9.54513 10.6629 9.90211 10.6655C10.0064 10.6732 10.1154 10.6252 10.1661 10.5312C10.2031 10.4539 10.2154 10.3676 10.2371 10.2852C10.3394 10.3412 10.4394 10.4326 10.5648 10.4159C10.6398 10.4102 10.7011 10.3622 10.7514 10.3102C10.9774 10.0832 11.2037 9.85624 11.4311 9.63058C11.4871 9.57591 11.5451 9.51325 11.5514 9.43092C11.5694 9.30559 11.4784 9.20459 11.4224 9.10193ZM11.2654 8.59261C11.0941 8.65227 10.8501 8.63328 10.7624 8.82494C10.6814 9.0236 10.8664 9.18692 10.9501 9.34959C10.8031 9.51058 10.6428 9.65824 10.4914 9.81491C10.3231 9.73757 10.1618 9.54558 9.96011 9.62758C9.76779 9.71524 9.78512 9.9599 9.72645 10.1319C9.50979 10.1322 9.29313 10.1326 9.07647 10.1319C9.01748 9.9599 9.03414 9.71491 8.84248 9.62658C8.64049 9.54391 8.47849 9.73624 8.30983 9.81357C8.15817 9.66024 8.00584 9.50758 7.85218 9.35592C7.92818 9.18626 8.1235 9.0256 8.03917 8.82294C7.95118 8.63128 7.70652 8.65094 7.53519 8.59094C7.53485 8.37395 7.53452 8.15696 7.53552 7.93996C7.70685 7.87963 7.95184 7.89896 8.04017 7.7073C8.12384 7.50564 7.93218 7.34265 7.85318 7.17465C8.00851 7.02266 8.15817 6.865 8.3165 6.716C8.48016 6.79733 8.64182 6.98333 8.84081 6.90466C9.03714 6.819 9.01281 6.57101 9.07614 6.39934C9.29313 6.39968 9.51013 6.40068 9.72712 6.40201C9.78912 6.57334 9.76679 6.81766 9.95911 6.90633C10.1621 6.98999 10.3224 6.79433 10.4931 6.71933C10.6434 6.87233 10.7941 7.02533 10.9491 7.17332C10.8758 7.34465 10.6811 7.50364 10.7611 7.7063C10.8474 7.90063 11.0934 7.88163 11.2654 7.9413C11.2664 8.15829 11.2661 8.37528 11.2654 8.59261Z" fill="black"/>
<path d="M10.4443 8.48163C10.569 7.94465 10.2027 7.358 9.666 7.23334C9.18035 7.09701 8.62703 7.36433 8.42837 7.82699C8.21005 8.28564 8.38271 8.88195 8.81103 9.15428C9.22335 9.4396 9.83066 9.37094 10.1703 9.00262C10.3083 8.85929 10.4043 8.67663 10.4443 8.48163ZM9.92499 8.3573C9.88299 8.63096 9.60267 8.83729 9.32868 8.79296C9.07135 8.76362 8.86203 8.52396 8.86736 8.26497C8.85803 7.95631 9.16268 7.68666 9.46801 7.73732C9.76033 7.76665 9.98299 8.06931 9.92499 8.3573Z" fill="black"/>
<path d="M9.13477 14.1309C9.13477 13.9533 9.13477 13.7756 9.13477 13.5976C8.84544 13.5946 8.55578 13.6033 8.26646 13.5936C7.86481 13.5699 7.52681 13.1996 7.53548 12.798C7.53415 12.087 7.53548 11.3757 7.53482 10.6644C7.35715 10.6644 7.17949 10.6644 7.0015 10.6644C7.00183 11.3753 7.00083 12.0863 7.00216 12.7973C7.00216 13.1306 7.13216 13.4616 7.36015 13.7046C7.59981 13.9649 7.94714 14.1226 8.30112 14.1296C8.57912 14.1329 8.85677 14.1299 9.13477 14.1309Z" fill="black"/>
<path d="M9.13477 2.93217C9.13477 2.75451 9.13477 2.57685 9.13477 2.39885C8.85711 2.39985 8.57912 2.39652 8.30146 2.40052C7.94747 2.40752 7.60115 2.56518 7.36049 2.82451C7.13183 3.06783 7.00183 3.39882 7.00216 3.73248C7.00083 4.44346 7.00183 5.15444 7.0015 5.86541C7.17949 5.86541 7.35715 5.86541 7.53481 5.86541C7.53648 5.14244 7.53215 4.41913 7.53681 3.69615C7.54448 3.30749 7.87714 2.96117 8.26446 2.9365C8.55445 2.92617 8.84477 2.93517 9.13477 2.93217Z" fill="black"/>
</svg>
