<svg width="20" height="20" viewBox="0 0 20 20" fill="none" xmlns="http://www.w3.org/2000/svg">
<path d="M1.67344 0H1.83164C1.94648 0.0296875 2.06367 0.0699219 2.15156 0.152344C2.33008 0.3125 2.39258 0.587109 2.29805 0.807813C2.2293 0.971094 2.0875 1.08477 1.96953 1.21055C4.61992 1.21133 7.2707 1.21055 9.92148 1.21094C10.6824 1.20938 11.4453 1.29453 12.1828 1.48477C13.6754 1.86328 15.0598 2.64766 16.157 3.72695C17.5523 5.08945 18.4715 6.9293 18.7145 8.86484C18.9406 10.5949 18.6437 12.3914 17.8551 13.9488C17.091 15.4746 15.868 16.7613 14.3926 17.6172C15.5945 17.6172 16.7965 17.6176 17.9984 17.6168C17.8535 17.4766 17.6855 17.327 17.6637 17.1133C17.6156 16.823 17.8203 16.5215 18.109 16.4617C18.3137 16.4117 18.5336 16.4863 18.6777 16.6375C19.048 17.0082 19.4184 17.3797 19.7902 17.7492C19.909 17.8613 19.9859 18.0125 20 18.1758V18.2617C19.9738 18.4113 19.902 18.5492 19.7934 18.6551C19.4191 19.0395 19.048 19.4266 18.6738 19.8105C18.5688 19.9227 18.4227 19.9844 18.2715 20H18.1691C17.8707 19.9562 17.6285 19.6762 17.6598 19.3707C17.668 19.1215 17.8711 18.9535 18.032 18.7895C15.8363 18.7883 13.6406 18.7895 11.4445 18.7891C10.4656 18.7781 9.47734 18.8391 8.50898 18.6605C6.4582 18.3188 4.55156 17.209 3.23008 15.6059C2.27422 14.4555 1.61992 13.0566 1.35469 11.5844C1.04648 9.89258 1.23789 8.10938 1.92109 6.5293C2.66055 4.79805 3.97773 3.325 5.60703 2.38359C4.40508 2.38164 3.20352 2.38359 2.00195 2.38281C2.13398 2.51406 2.28828 2.6457 2.32734 2.8375C2.39609 3.11602 2.2293 3.4293 1.95469 3.51875C1.73711 3.60078 1.48164 3.53164 1.32383 3.36406C0.947266 2.98594 0.56875 2.60938 0.192188 2.23125C0.0800781 2.12422 0.0140625 1.97812 0 1.82422V1.73555C0.0265625 1.57539 0.111328 1.43242 0.228516 1.32187C0.595703 0.946875 0.958984 0.567969 1.32422 0.191016C1.41719 0.0917969 1.54375 0.0339844 1.67344 0ZM9.35273 2.41172C8.34492 2.4957 7.35547 2.78555 6.46094 3.25742C5.06055 3.99297 3.9 5.175 3.19102 6.58945C2.53398 7.88828 2.26992 9.3793 2.42891 10.8254C2.57656 12.2219 3.12773 13.5715 3.99336 14.6766C4.89062 15.8281 6.12266 16.7172 7.50313 17.1945C9.30586 17.827 11.348 17.7441 13.0906 16.9598C14.5301 16.3211 15.7594 15.223 16.5586 13.8664C17.4051 12.4473 17.7598 10.7465 17.5633 9.10664C17.4285 7.94766 17.0199 6.82187 16.3801 5.8457C15.6523 4.72852 14.6266 3.80703 13.4367 3.20469C12.1852 2.56523 10.7527 2.29023 9.35273 2.41172Z" fill="white"/>
<path d="M13.7698 5.40702C13.9909 5.21561 14.3542 5.23202 14.5569 5.44295C14.7671 5.64608 14.7843 6.00819 14.5929 6.23006C14.437 6.40311 14.264 6.56014 14.1015 6.72694C14.4589 7.27342 14.6312 7.93866 14.573 8.59022C14.5202 9.24256 14.2398 9.8742 13.7894 10.3492C13.514 10.6355 13.228 10.9109 12.9499 11.1945C12.8507 11.2996 12.7249 11.3863 12.5788 11.4055C12.3058 11.4543 12.0128 11.2805 11.9312 11.0137C11.8612 10.8109 11.9159 10.5746 12.0655 10.4215C12.3667 10.1121 12.6819 9.816 12.9773 9.50077C13.4405 8.99022 13.5405 8.2035 13.2452 7.58436C13.0277 7.77459 12.8542 8.07303 12.5374 8.09608C12.1898 8.13788 11.8632 7.81483 11.903 7.46639C11.9237 7.14686 12.2253 6.9742 12.4155 6.75506C11.9413 6.53358 11.3698 6.52772 10.898 6.75819C10.6847 6.85702 10.5003 7.00663 10.3382 7.17498C10.0921 7.42264 9.84523 7.66991 9.59757 7.91639C9.42687 8.09725 9.13859 8.15272 8.91593 8.03905C8.56398 7.88749 8.47648 7.37303 8.74992 7.1078C9.02101 6.83319 9.29601 6.56209 9.56789 6.28866C9.98039 5.87342 10.5163 5.58006 11.0921 5.4703C11.839 5.32069 12.6374 5.48006 13.273 5.89803C13.4402 5.73592 13.598 5.56444 13.7698 5.40702Z" fill="white"/>
<path d="M7.1077 8.75039C7.31825 8.53984 7.68856 8.5332 7.90614 8.73633C8.13856 8.93867 8.16239 9.32734 7.95419 9.55547C7.64989 9.87656 7.3245 10.1773 7.02177 10.5C6.55848 11.0102 6.45927 11.7973 6.75497 12.4156C6.97294 12.2254 7.14599 11.9266 7.46356 11.9035C7.812 11.8609 8.13661 12.1867 8.09598 12.5344C8.07411 12.8527 7.77567 13.0273 7.58466 13.2449C8.09364 13.4832 8.71356 13.4684 9.20341 13.1895C9.46708 13.0473 9.66434 12.8176 9.87528 12.6109C10.0663 12.4234 10.2503 12.2281 10.4452 12.0449C10.68 11.8305 11.0854 11.8637 11.2811 12.1145C11.4663 12.3344 11.4526 12.6863 11.2507 12.8906C10.9663 13.1789 10.6784 13.4645 10.3917 13.7504C9.92216 14.2133 9.29169 14.507 8.63583 14.5703C7.9702 14.6391 7.28622 14.468 6.72645 14.102C6.56044 14.2641 6.40263 14.4348 6.23153 14.5914C6.01083 14.784 5.64872 14.7676 5.44442 14.559C5.23309 14.3555 5.21395 13.9906 5.4077 13.7691C5.56473 13.598 5.73583 13.4398 5.89794 13.2734C5.53309 12.7145 5.36044 12.032 5.43036 11.3672C5.49169 10.7008 5.79677 10.0637 6.26747 9.58945C6.54755 9.31016 6.82606 9.02852 7.1077 8.75039Z" fill="white"/>
</svg>
