<?xml version="1.0" encoding="utf-8"?>
<!-- Generator: Adobe Illustrator 23.0.1, SVG Export Plug-In . SVG Version: 6.00 Build 0)  -->
<svg version="1.1" id="Layer_1" xmlns="http://www.w3.org/2000/svg" xmlns:xlink="http://www.w3.org/1999/xlink" x="0px" y="0px"
	 viewBox="0 0 18 16" style="enable-background:new 0 0 18 16;" xml:space="preserve">
<style type="text/css">
	.st0{fill:#161616;}
</style>
<g id="Layer_54">
	<path class="st0" d="M9,15.6c-0.5,0-0.9-0.2-1.3-0.5L1.6,8.9c-1-1-1.5-2.3-1.5-3.7c0-2.6,2.2-4.8,4.8-4.8c0,0,0,0,0,0
		c1.3,0,2.5,0.5,3.5,1.4L9,2.4L9.5,2l0,0c1.7-1.8,4.5-2,6.5-0.5c2.1,1.7,2.5,4.7,0.9,6.9c-0.1,0.2-0.3,0.3-0.4,0.5L10.2,15
		C9.9,15.4,9.4,15.6,9,15.6z M4.9,1.6C4,1.6,3,2,2.4,2.6C1.7,3.3,1.3,4.2,1.3,5.2c0,1.1,0.4,2.1,1.2,2.9l6.1,6.1
		c0.2,0.2,0.6,0.2,0.8,0c0,0,0,0,0,0l6.3-6.3c0.7-0.8,1.1-1.8,1.1-2.9C16.6,4,16.1,3,15.3,2.4c-1.5-1.1-3.7-0.9-5,0.4L9.4,3.7
		c-0.2,0.2-0.6,0.2-0.8,0c0,0,0,0,0,0l-1-1C6.8,2,5.9,1.6,4.9,1.6L4.9,1.6z"/>
</g>
</svg>
