<svg width="171" height="54" viewBox="0 0 171 54" fill="none" xmlns="http://www.w3.org/2000/svg">
<path d="M3.06 28C2.86 28 2.69 27.93 2.55 27.79C2.41 27.65 2.34 27.48 2.34 27.28V7.75C2.34 7.53 2.4 7.35 2.52 7.21C2.66 7.07 2.84 7 3.06 7H11.1C13.52 7 15.42 7.57 16.8 8.71C18.18 9.85 18.87 11.51 18.87 13.69C18.87 15.85 18.18 17.49 16.8 18.61C15.42 19.71 13.52 20.26 11.1 20.26H6.69V27.28C6.69 27.5 6.62 27.68 6.48 27.82C6.34 27.94 6.16 28 5.94 28H3.06ZM10.95 16.9C12.11 16.9 12.99 16.63 13.59 16.09C14.21 15.53 14.52 14.72 14.52 13.66C14.52 12.62 14.22 11.81 13.62 11.23C13.04 10.65 12.15 10.36 10.95 10.36H6.63V16.9H10.95ZM25.9924 28.3C24.9724 28.3 24.0324 28.1 23.1724 27.7C22.3324 27.28 21.6624 26.72 21.1624 26.02C20.6824 25.32 20.4424 24.55 20.4424 23.71C20.4424 22.35 20.9924 21.25 22.0924 20.41C23.1924 19.57 24.7024 19 26.6224 18.7L30.7324 18.1V17.47C30.7324 16.61 30.5124 15.96 30.0724 15.52C29.6324 15.08 28.9324 14.86 27.9724 14.86C27.3124 14.86 26.7824 14.98 26.3824 15.22C25.9824 15.46 25.6524 15.71 25.3924 15.97C25.1524 16.21 24.9924 16.37 24.9124 16.45C24.8324 16.69 24.6824 16.81 24.4624 16.81H22.1224C21.9424 16.81 21.7824 16.75 21.6424 16.63C21.5224 16.51 21.4624 16.35 21.4624 16.15C21.4824 15.65 21.7224 15.09 22.1824 14.47C22.6624 13.83 23.3924 13.28 24.3724 12.82C25.3524 12.34 26.5624 12.1 28.0024 12.1C30.3624 12.1 32.0824 12.63 33.1624 13.69C34.2424 14.75 34.7824 16.14 34.7824 17.86V27.28C34.7824 27.48 34.7124 27.65 34.5724 27.79C34.4524 27.93 34.2824 28 34.0624 28H31.5724C31.3724 28 31.2024 27.93 31.0624 27.79C30.9224 27.65 30.8524 27.48 30.8524 27.28V26.11C30.4124 26.75 29.7924 27.28 28.9924 27.7C28.1924 28.1 27.1924 28.3 25.9924 28.3ZM27.0124 25.42C28.1124 25.42 29.0124 25.06 29.7124 24.34C30.4124 23.62 30.7624 22.58 30.7624 21.22V20.62L27.7624 21.1C25.4624 21.46 24.3124 22.23 24.3124 23.41C24.3124 24.05 24.5724 24.55 25.0924 24.91C25.6324 25.25 26.2724 25.42 27.0124 25.42ZM41.0402 33.7C40.8802 33.7 40.7302 33.64 40.5902 33.52C40.4702 33.4 40.4102 33.26 40.4102 33.1C40.4102 32.96 40.4502 32.8 40.5302 32.62L42.9002 27.07L37.1402 13.48C37.0602 13.3 37.0202 13.16 37.0202 13.06C37.0402 12.88 37.1102 12.73 37.2302 12.61C37.3502 12.47 37.5002 12.4 37.6802 12.4H40.1702C40.5302 12.4 40.7902 12.59 40.9502 12.97L44.9402 22.75L48.9902 12.97C49.1902 12.59 49.4702 12.4 49.8302 12.4H52.2602C52.4402 12.4 52.5902 12.46 52.7102 12.58C52.8302 12.7 52.8902 12.84 52.8902 13C52.8902 13.14 52.8502 13.3 52.7702 13.48L44.2802 33.13C44.1202 33.51 43.8402 33.7 43.4402 33.7H41.0402Z" fill="#014478"/>
<path d="M56.5561 28C56.3561 28 56.1861 27.93 56.0461 27.79C55.9061 27.65 55.8361 27.48 55.8361 27.28V7.75C55.8361 7.53 55.8961 7.35 56.0161 7.21C56.1561 7.07 56.3361 7 56.5561 7H58.8961C59.2761 7 59.5661 7.17 59.7661 7.51L68.3461 20.83V7.75C68.3461 7.53 68.4061 7.35 68.5261 7.21C68.6661 7.07 68.8461 7 69.0661 7H71.6461C71.8661 7 72.0461 7.07 72.1861 7.21C72.3261 7.35 72.3961 7.53 72.3961 7.75V27.25C72.3961 27.47 72.3261 27.65 72.1861 27.79C72.0461 27.93 71.8761 28 71.6761 28H69.3061C68.9061 28 68.6061 27.83 68.4061 27.49L59.8561 14.47V27.28C59.8561 27.48 59.7861 27.65 59.6461 27.79C59.5261 27.93 59.3561 28 59.1361 28H56.5561ZM75.847 28C75.687 28 75.537 27.94 75.397 27.82C75.277 27.7 75.217 27.55 75.217 27.37C75.217 27.29 75.257 27.17 75.337 27.01L82.027 17.29L75.757 7.99C75.677 7.87 75.637 7.75 75.637 7.63C75.637 7.45 75.697 7.3 75.817 7.18C75.957 7.06 76.107 7 76.267 7H79.417C79.777 7 80.087 7.19 80.347 7.57L84.727 13.99L89.137 7.57C89.357 7.19 89.667 7 90.067 7H93.037C93.197 7 93.337 7.06 93.457 7.18C93.597 7.3 93.667 7.45 93.667 7.63C93.667 7.71 93.627 7.83 93.547 7.99L87.277 17.29L93.997 27.01C94.057 27.13 94.087 27.25 94.087 27.37C94.087 27.55 94.027 27.7 93.907 27.82C93.787 27.94 93.637 28 93.457 28H90.247C89.887 28 89.577 27.82 89.317 27.46L84.577 20.71L79.897 27.46C79.637 27.82 79.327 28 78.967 28H75.847ZM102.28 28C102.08 28 101.91 27.93 101.77 27.79C101.63 27.65 101.56 27.48 101.56 27.28V10.75H96.0096C95.8096 10.75 95.6396 10.68 95.4996 10.54C95.3596 10.4 95.2896 10.22 95.2896 10V7.75C95.2896 7.53 95.3496 7.35 95.4696 7.21C95.6096 7.07 95.7896 7 96.0096 7H111.34C111.56 7 111.74 7.07 111.88 7.21C112.02 7.35 112.09 7.53 112.09 7.75V10C112.09 10.22 112.02 10.4 111.88 10.54C111.74 10.68 111.56 10.75 111.34 10.75H105.82V27.28C105.82 27.48 105.75 27.65 105.61 27.79C105.49 27.93 105.32 28 105.1 28H102.28ZM122.153 28.3C120.373 28.3 118.863 28.02 117.623 27.46C116.403 26.9 115.483 26.2 114.863 25.36C114.263 24.5 113.943 23.62 113.903 22.72C113.903 22.54 113.963 22.39 114.083 22.27C114.203 22.15 114.353 22.09 114.533 22.09H117.293C117.733 22.09 118.033 22.29 118.193 22.69C118.633 24.11 119.953 24.82 122.153 24.82C123.373 24.82 124.323 24.54 125.003 23.98C125.703 23.42 126.053 22.62 126.053 21.58C126.053 20.54 125.733 19.79 125.093 19.33C124.473 18.85 123.553 18.61 122.333 18.61H119.243C119.043 18.61 118.873 18.54 118.733 18.4C118.593 18.26 118.523 18.09 118.523 17.89V16.6C118.523 16.22 118.653 15.92 118.913 15.7L124.253 10.48H115.703C115.483 10.48 115.303 10.41 115.163 10.27C115.023 10.13 114.953 9.96 114.953 9.76V7.75C114.953 7.53 115.023 7.35 115.163 7.21C115.303 7.07 115.483 7 115.703 7H128.603C128.823 7 129.003 7.07 129.143 7.21C129.283 7.35 129.353 7.53 129.353 7.75V9.58C129.353 9.92 129.223 10.2 128.963 10.42L123.803 15.73L124.163 15.76C126.083 15.92 127.603 16.5 128.723 17.5C129.863 18.5 130.433 19.93 130.433 21.79C130.433 23.11 130.073 24.26 129.353 25.24C128.653 26.22 127.673 26.98 126.413 27.52C125.173 28.04 123.753 28.3 122.153 28.3ZM141.319 28.3C139.639 28.3 138.159 27.98 136.879 27.34C135.619 26.7 134.639 25.82 133.939 24.7C133.259 23.58 132.919 22.32 132.919 20.92C132.919 19.16 133.699 17.22 135.259 15.1L140.719 7.6C140.879 7.4 141.029 7.25 141.169 7.15C141.309 7.05 141.509 7 141.769 7H144.619C144.799 7 144.939 7.07 145.039 7.21C145.159 7.33 145.219 7.48 145.219 7.66C145.219 7.8 145.179 7.93 145.099 8.05L140.899 13.84C141.219 13.76 141.639 13.72 142.159 13.72C143.499 13.74 144.729 14.07 145.849 14.71C146.989 15.33 147.889 16.18 148.549 17.26C149.229 18.34 149.569 19.54 149.569 20.86C149.569 22.22 149.229 23.47 148.549 24.61C147.889 25.73 146.929 26.63 145.669 27.31C144.429 27.97 142.979 28.3 141.319 28.3ZM141.259 24.82C142.379 24.82 143.329 24.48 144.109 23.8C144.889 23.1 145.279 22.14 145.279 20.92C145.279 19.72 144.889 18.78 144.109 18.1C143.349 17.4 142.399 17.05 141.259 17.05C140.139 17.05 139.189 17.4 138.409 18.1C137.649 18.78 137.269 19.72 137.269 20.92C137.269 22.14 137.649 23.1 138.409 23.8C139.189 24.48 140.139 24.82 141.259 24.82ZM160.427 28.3C157.747 28.3 155.747 27.56 154.427 26.08C153.127 24.6 152.417 22.66 152.297 20.26C152.277 19.72 152.267 18.8 152.267 17.5C152.267 16.18 152.277 15.24 152.297 14.68C152.397 12.32 153.117 10.4 154.457 8.92C155.797 7.44 157.787 6.7 160.427 6.7C163.067 6.7 165.057 7.44 166.397 8.92C167.737 10.4 168.457 12.32 168.557 14.68C168.597 15.8 168.617 16.74 168.617 17.5C168.617 18.26 168.597 19.18 168.557 20.26C168.437 22.66 167.717 24.6 166.397 26.08C165.097 27.56 163.107 28.3 160.427 28.3ZM160.427 24.79C161.667 24.79 162.597 24.39 163.217 23.59C163.837 22.77 164.167 21.61 164.207 20.11C164.227 19.53 164.237 18.64 164.237 17.44C164.237 16.24 164.227 15.37 164.207 14.83C164.167 13.37 163.837 12.23 163.217 11.41C162.597 10.59 161.667 10.17 160.427 10.15C159.187 10.17 158.257 10.59 157.637 11.41C157.017 12.23 156.687 13.37 156.647 14.83C156.627 15.37 156.617 16.24 156.617 17.44C156.617 18.64 156.627 19.53 156.647 20.11C156.687 21.61 157.017 22.77 157.637 23.59C158.257 24.39 159.187 24.79 160.427 24.79Z" fill="#FB7540"/>
<path d="M2.54 50C2.44667 50 2.372 49.972 2.316 49.916C2.26 49.8507 2.232 49.7713 2.232 49.678V40.536C2.232 40.4333 2.26 40.354 2.316 40.298C2.372 40.2327 2.44667 40.2 2.54 40.2H8.224C8.32667 40.2 8.406 40.2327 8.462 40.298C8.52733 40.354 8.56 40.4333 8.56 40.536V41.054C8.56 41.1473 8.52733 41.2267 8.462 41.292C8.406 41.348 8.32667 41.376 8.224 41.376H3.534V44.694H7.944C8.04667 44.694 8.126 44.7267 8.182 44.792C8.24733 44.848 8.28 44.9227 8.28 45.016V45.548C8.28 45.6413 8.24733 45.7207 8.182 45.786C8.11667 45.842 8.03733 45.87 7.944 45.87H3.534V49.678C3.534 49.7713 3.50133 49.8507 3.436 49.916C3.37067 49.972 3.29133 50 3.198 50H2.54ZM12.7777 50.14C11.8911 50.14 11.2051 49.8553 10.7197 49.286C10.2344 48.7073 9.99172 47.942 9.99172 46.99V43.042C9.99172 42.9487 10.0197 42.874 10.0757 42.818C10.1411 42.7527 10.2204 42.72 10.3137 42.72H10.9577C11.0511 42.72 11.1257 42.7527 11.1817 42.818C11.2471 42.874 11.2797 42.9487 11.2797 43.042V46.92C11.2797 48.3387 11.8957 49.048 13.1277 49.048C13.7251 49.048 14.1964 48.8613 14.5417 48.488C14.8964 48.1053 15.0737 47.5827 15.0737 46.92V43.042C15.0737 42.9487 15.1017 42.874 15.1577 42.818C15.2231 42.7527 15.3024 42.72 15.3957 42.72H16.0397C16.1331 42.72 16.2077 42.7527 16.2637 42.818C16.3291 42.874 16.3617 42.9487 16.3617 43.042V49.678C16.3617 49.7713 16.3291 49.8507 16.2637 49.916C16.2077 49.972 16.1331 50 16.0397 50H15.4377C15.3444 50 15.2651 49.972 15.1997 49.916C15.1437 49.8507 15.1157 49.7713 15.1157 49.678V49.048C14.8451 49.412 14.5277 49.6873 14.1637 49.874C13.7997 50.0513 13.3377 50.14 12.7777 50.14ZM21.2563 50C19.8096 50 19.0863 49.1833 19.0863 47.55V43.798H17.9803C17.8869 43.798 17.8123 43.77 17.7563 43.714C17.7003 43.658 17.6723 43.5833 17.6723 43.49V43.042C17.6723 42.9487 17.7003 42.874 17.7563 42.818C17.8123 42.7527 17.8869 42.72 17.9803 42.72H19.0863V40.382C19.0863 40.2887 19.1143 40.214 19.1703 40.158C19.2263 40.0927 19.3009 40.06 19.3943 40.06H20.0103C20.1036 40.06 20.1783 40.0927 20.2343 40.158C20.2996 40.214 20.3323 40.2887 20.3323 40.382V42.72H22.0683C22.1616 42.72 22.2363 42.7527 22.2923 42.818C22.3576 42.874 22.3903 42.9487 22.3903 43.042V43.49C22.3903 43.5833 22.3576 43.658 22.2923 43.714C22.2363 43.77 22.1616 43.798 22.0683 43.798H20.3323V47.452C20.3323 47.928 20.4069 48.2873 20.5563 48.53C20.7149 48.7727 20.9809 48.894 21.3543 48.894H22.2083C22.3016 48.894 22.3763 48.9267 22.4323 48.992C22.4883 49.048 22.5163 49.1227 22.5163 49.216V49.678C22.5163 49.7713 22.4883 49.8507 22.4323 49.916C22.3763 49.972 22.3016 50 22.2083 50H21.2563ZM26.6 50.14C25.7133 50.14 25.0273 49.8553 24.542 49.286C24.0567 48.7073 23.814 47.942 23.814 46.99V43.042C23.814 42.9487 23.842 42.874 23.898 42.818C23.9633 42.7527 24.0427 42.72 24.136 42.72H24.78C24.8733 42.72 24.948 42.7527 25.004 42.818C25.0693 42.874 25.102 42.9487 25.102 43.042V46.92C25.102 48.3387 25.718 49.048 26.95 49.048C27.5473 49.048 28.0187 48.8613 28.364 48.488C28.7187 48.1053 28.896 47.5827 28.896 46.92V43.042C28.896 42.9487 28.924 42.874 28.98 42.818C29.0453 42.7527 29.1247 42.72 29.218 42.72H29.862C29.9553 42.72 30.03 42.7527 30.086 42.818C30.1513 42.874 30.184 42.9487 30.184 43.042V49.678C30.184 49.7713 30.1513 49.8507 30.086 49.916C30.03 49.972 29.9553 50 29.862 50H29.26C29.1667 50 29.0873 49.972 29.022 49.916C28.966 49.8507 28.938 49.7713 28.938 49.678V49.048C28.6673 49.412 28.35 49.6873 27.986 49.874C27.622 50.0513 27.16 50.14 26.6 50.14ZM32.6005 50C32.5072 50 32.4278 49.972 32.3625 49.916C32.3065 49.8507 32.2785 49.7713 32.2785 49.678V43.056C32.2785 42.9627 32.3065 42.8833 32.3625 42.818C32.4278 42.7527 32.5072 42.72 32.6005 42.72H33.1885C33.2912 42.72 33.3705 42.7527 33.4265 42.818C33.4918 42.874 33.5245 42.9533 33.5245 43.056V43.672C33.9072 43.0373 34.5558 42.72 35.4705 42.72H36.0165C36.1192 42.72 36.1985 42.748 36.2545 42.804C36.3105 42.86 36.3385 42.9393 36.3385 43.042V43.56C36.3385 43.6533 36.3105 43.7327 36.2545 43.798C36.1985 43.854 36.1192 43.882 36.0165 43.882H35.2185C34.7052 43.882 34.2992 44.0313 34.0005 44.33C33.7112 44.6287 33.5665 45.0347 33.5665 45.548V49.678C33.5665 49.7713 33.5338 49.8507 33.4685 49.916C33.4032 49.972 33.3238 50 33.2305 50H32.6005ZM40.2895 50.14C39.3375 50.14 38.5768 49.846 38.0075 49.258C37.4381 48.6607 37.1255 47.8487 37.0695 46.822L37.0555 46.346L37.0695 45.884C37.1255 44.876 37.4381 44.0733 38.0075 43.476C38.5768 42.8787 39.3375 42.58 40.2895 42.58C41.3161 42.58 42.1095 42.9067 42.6695 43.56C43.2388 44.2133 43.5235 45.1 43.5235 46.22V46.472C43.5235 46.5653 43.4908 46.6447 43.4255 46.71C43.3695 46.766 43.2948 46.794 43.2015 46.794H38.3435V46.92C38.3715 47.5267 38.5581 48.0447 38.9035 48.474C39.2488 48.9033 39.7061 49.118 40.2755 49.118C40.7141 49.118 41.0688 49.034 41.3395 48.866C41.6195 48.6887 41.8295 48.5067 41.9695 48.32C42.0535 48.208 42.1188 48.1427 42.1655 48.124C42.2121 48.096 42.2915 48.082 42.4035 48.082H43.0195C43.1035 48.082 43.1735 48.1053 43.2295 48.152C43.2948 48.1987 43.3275 48.2593 43.3275 48.334C43.3275 48.5393 43.2015 48.7867 42.9495 49.076C42.6975 49.3653 42.3381 49.6173 41.8715 49.832C41.4141 50.0373 40.8868 50.14 40.2895 50.14ZM42.2495 45.842V45.8C42.2495 45.1467 42.0721 44.6147 41.7175 44.204C41.3628 43.7933 40.8868 43.588 40.2895 43.588C39.6828 43.588 39.2068 43.7933 38.8615 44.204C38.5161 44.6147 38.3435 45.1467 38.3435 45.8V45.842H42.2495ZM51.6251 50.14C50.5984 50.14 49.8051 49.8507 49.2451 49.272C48.6944 48.6933 48.4004 47.9233 48.3631 46.962L48.3491 46.36L48.3631 45.758C48.4004 44.7967 48.6991 44.0267 49.2591 43.448C49.8284 42.8693 50.6171 42.58 51.6251 42.58C52.6331 42.58 53.4171 42.8693 53.9771 43.448C54.5464 44.0267 54.8498 44.7967 54.8871 45.758C54.9058 45.9633 54.9151 46.164 54.9151 46.36C54.9151 46.556 54.9058 46.7567 54.8871 46.962C54.8498 47.9233 54.5511 48.6933 53.9911 49.272C53.4404 49.8507 52.6518 50.14 51.6251 50.14ZM51.6251 49.09C52.2224 49.09 52.6938 48.9033 53.0391 48.53C53.3938 48.1473 53.5851 47.6013 53.6131 46.892C53.6224 46.7987 53.6271 46.6213 53.6271 46.36C53.6271 46.0987 53.6224 45.9213 53.6131 45.828C53.5851 45.1187 53.3938 44.5773 53.0391 44.204C52.6938 43.8213 52.2224 43.63 51.6251 43.63C51.0278 43.63 50.5518 43.8213 50.1971 44.204C49.8518 44.5773 49.6651 45.1187 49.6371 45.828L49.6231 46.36L49.6371 46.892C49.6651 47.6013 49.8518 48.1473 50.1971 48.53C50.5518 48.9033 51.0278 49.09 51.6251 49.09ZM57.6508 50C57.5574 50 57.4781 49.972 57.4128 49.916C57.3568 49.8507 57.3288 49.7713 57.3288 49.678V43.798H56.1248C56.0314 43.798 55.9521 43.77 55.8868 43.714C55.8308 43.658 55.8028 43.5833 55.8028 43.49V43.042C55.8028 42.9487 55.8308 42.874 55.8868 42.818C55.9521 42.7527 56.0314 42.72 56.1248 42.72H57.3288V42.02C57.3288 41.264 57.5108 40.6807 57.8748 40.27C58.2481 39.85 58.8548 39.64 59.6948 39.64H60.5208C60.6141 39.64 60.6888 39.6727 60.7448 39.738C60.8101 39.794 60.8428 39.8687 60.8428 39.962V40.41C60.8428 40.5033 60.8101 40.578 60.7448 40.634C60.6888 40.69 60.6141 40.718 60.5208 40.718H59.7228C59.2934 40.718 58.9948 40.83 58.8268 41.054C58.6588 41.278 58.5748 41.6233 58.5748 42.09V42.72H60.3808C60.4741 42.72 60.5488 42.7527 60.6048 42.818C60.6701 42.874 60.7028 42.9487 60.7028 43.042V43.49C60.7028 43.5833 60.6701 43.658 60.6048 43.714C60.5488 43.77 60.4741 43.798 60.3808 43.798H58.5748V49.678C58.5748 49.7713 58.5421 49.8507 58.4768 49.916C58.4208 49.972 58.3461 50 58.2528 50H57.6508ZM65.5673 50C65.474 50 65.3993 49.972 65.3433 49.916C65.2873 49.8507 65.2593 49.7713 65.2593 49.678V40.536C65.2593 40.4333 65.2873 40.354 65.3433 40.298C65.3993 40.2327 65.474 40.2 65.5673 40.2H68.7313C70.1407 40.2 71.158 40.5173 71.7833 41.152C72.4087 41.7773 72.7307 42.7247 72.7493 43.994C72.7587 44.2647 72.7633 44.6287 72.7633 45.086C72.7633 45.5433 72.7587 45.912 72.7493 46.192C72.7307 47.0787 72.586 47.802 72.3153 48.362C72.054 48.9127 71.6387 49.3233 71.0693 49.594C70.5 49.8647 69.744 50 68.8013 50H65.5673ZM68.7313 48.838C69.3847 48.838 69.9027 48.7493 70.2853 48.572C70.6773 48.3853 70.9573 48.1007 71.1253 47.718C71.3027 47.326 71.4007 46.7987 71.4193 46.136C71.438 45.576 71.4473 45.226 71.4473 45.086C71.4473 44.9367 71.438 44.5913 71.4193 44.05C71.4007 43.1167 71.1767 42.4353 70.7473 42.006C70.3273 41.5673 69.632 41.348 68.6613 41.348H66.5753V48.838H68.7313ZM74.926 41.348C74.8327 41.348 74.7533 41.32 74.688 41.264C74.632 41.1987 74.604 41.1193 74.604 41.026V40.298C74.604 40.2047 74.632 40.1253 74.688 40.06C74.7533 39.9947 74.8327 39.962 74.926 39.962H75.752C75.8453 39.962 75.9247 39.9947 75.99 40.06C76.0553 40.1253 76.088 40.2047 76.088 40.298V41.026C76.088 41.1193 76.0553 41.1987 75.99 41.264C75.9247 41.32 75.8453 41.348 75.752 41.348H74.926ZM75.038 50C74.9447 50 74.8653 49.972 74.8 49.916C74.744 49.8507 74.716 49.7713 74.716 49.678V43.042C74.716 42.9487 74.744 42.874 74.8 42.818C74.8653 42.7527 74.9447 42.72 75.038 42.72H75.654C75.7473 42.72 75.822 42.7527 75.878 42.818C75.9433 42.874 75.976 42.9487 75.976 43.042V49.678C75.976 49.7713 75.9433 49.8507 75.878 49.916C75.822 49.972 75.7473 50 75.654 50H75.038ZM81.0333 53.08C80.2586 53.08 79.638 52.9493 79.1713 52.688C78.7046 52.4267 78.3733 52.128 78.1773 51.792C77.9906 51.456 77.8973 51.1667 77.8973 50.924C77.8973 50.84 77.93 50.7653 77.9953 50.7C78.0606 50.644 78.1353 50.616 78.2193 50.616H78.8353C78.9193 50.616 78.9893 50.6347 79.0453 50.672C79.1013 50.7187 79.148 50.798 79.1853 50.91C79.4466 51.6567 80.0393 52.03 80.9633 52.03C81.6633 52.03 82.1813 51.8807 82.5173 51.582C82.8533 51.2833 83.0213 50.756 83.0213 50V49.034C82.48 49.7247 81.724 50.07 80.7533 50.07C79.764 50.07 79.022 49.7527 78.5273 49.118C78.042 48.4833 77.7853 47.6807 77.7573 46.71L77.7433 46.318L77.7573 45.94C77.7853 44.9787 78.042 44.1807 78.5273 43.546C79.022 42.902 79.764 42.58 80.7533 42.58C81.7333 42.58 82.4986 42.9393 83.0493 43.658V43.056C83.0493 42.9627 83.0773 42.8833 83.1333 42.818C83.1986 42.7527 83.278 42.72 83.3713 42.72H83.9733C84.0666 42.72 84.1413 42.7527 84.1973 42.818C84.2626 42.8833 84.2953 42.9627 84.2953 43.056V49.846C84.2953 52.002 83.208 53.08 81.0333 53.08ZM81.0053 48.978C81.6586 48.978 82.1486 48.768 82.4753 48.348C82.8113 47.9187 82.9933 47.4053 83.0213 46.808C83.0306 46.724 83.0353 46.5607 83.0353 46.318C83.0353 46.0847 83.0306 45.926 83.0213 45.842C82.9933 45.2447 82.8113 44.736 82.4753 44.316C82.1486 43.8867 81.6586 43.672 81.0053 43.672C80.3333 43.672 79.8433 43.8867 79.5353 44.316C79.2366 44.736 79.0733 45.282 79.0453 45.954L79.0313 46.318L79.0453 46.696C79.0733 47.368 79.2366 47.9187 79.5353 48.348C79.8433 48.768 80.3333 48.978 81.0053 48.978ZM86.6155 41.348C86.5221 41.348 86.4428 41.32 86.3775 41.264C86.3215 41.1987 86.2935 41.1193 86.2935 41.026V40.298C86.2935 40.2047 86.3215 40.1253 86.3775 40.06C86.4428 39.9947 86.5221 39.962 86.6155 39.962H87.4415C87.5348 39.962 87.6141 39.9947 87.6795 40.06C87.7448 40.1253 87.7775 40.2047 87.7775 40.298V41.026C87.7775 41.1193 87.7448 41.1987 87.6795 41.264C87.6141 41.32 87.5348 41.348 87.4415 41.348H86.6155ZM86.7275 50C86.6341 50 86.5548 49.972 86.4895 49.916C86.4335 49.8507 86.4055 49.7713 86.4055 49.678V43.042C86.4055 42.9487 86.4335 42.874 86.4895 42.818C86.5548 42.7527 86.6341 42.72 86.7275 42.72H87.3435C87.4368 42.72 87.5115 42.7527 87.5675 42.818C87.6328 42.874 87.6655 42.9487 87.6655 43.042V49.678C87.6655 49.7713 87.6328 49.8507 87.5675 49.916C87.5115 49.972 87.4368 50 87.3435 50H86.7275ZM92.5688 50C91.1221 50 90.3988 49.1833 90.3988 47.55V43.798H89.2928C89.1994 43.798 89.1248 43.77 89.0688 43.714C89.0128 43.658 88.9848 43.5833 88.9848 43.49V43.042C88.9848 42.9487 89.0128 42.874 89.0688 42.818C89.1248 42.7527 89.1994 42.72 89.2928 42.72H90.3988V40.382C90.3988 40.2887 90.4268 40.214 90.4828 40.158C90.5388 40.0927 90.6134 40.06 90.7068 40.06H91.3228C91.4161 40.06 91.4908 40.0927 91.5468 40.158C91.6121 40.214 91.6448 40.2887 91.6448 40.382V42.72H93.3808C93.4741 42.72 93.5488 42.7527 93.6048 42.818C93.6701 42.874 93.7028 42.9487 93.7028 43.042V43.49C93.7028 43.5833 93.6701 43.658 93.6048 43.714C93.5488 43.77 93.4741 43.798 93.3808 43.798H91.6448V47.452C91.6448 47.928 91.7194 48.2873 91.8688 48.53C92.0274 48.7727 92.2934 48.894 92.6668 48.894H93.5208C93.6141 48.894 93.6888 48.9267 93.7448 48.992C93.8008 49.048 93.8288 49.1227 93.8288 49.216V49.678C93.8288 49.7713 93.8008 49.8507 93.7448 49.916C93.6888 49.972 93.6141 50 93.5208 50H92.5688ZM97.2125 50.14C96.7552 50.14 96.3305 50.0467 95.9385 49.86C95.5558 49.6733 95.2478 49.4213 95.0145 49.104C94.7905 48.7773 94.6785 48.418 94.6785 48.026C94.6785 47.41 94.9305 46.906 95.4345 46.514C95.9385 46.122 96.6245 45.8607 97.4925 45.73L99.5925 45.436V45.03C99.5925 44.0687 99.0372 43.588 97.9265 43.588C97.4972 43.588 97.1518 43.6767 96.8905 43.854C96.6292 44.022 96.4378 44.2227 96.3165 44.456C96.2792 44.5493 96.2372 44.6147 96.1905 44.652C96.1532 44.68 96.0972 44.694 96.0225 44.694H95.4765C95.3925 44.694 95.3178 44.666 95.2525 44.61C95.1965 44.5447 95.1685 44.47 95.1685 44.386C95.1685 44.1713 95.2665 43.924 95.4625 43.644C95.6678 43.3547 95.9805 43.1073 96.4005 42.902C96.8205 42.6873 97.3338 42.58 97.9405 42.58C98.9858 42.58 99.7325 42.8227 100.18 43.308C100.638 43.7933 100.866 44.4 100.866 45.128V49.678C100.866 49.7713 100.834 49.8507 100.768 49.916C100.712 49.972 100.638 50 100.544 50H99.9285C99.8352 50 99.7605 49.972 99.7045 49.916C99.6485 49.8507 99.6205 49.7713 99.6205 49.678V49.062C99.4152 49.37 99.1165 49.6267 98.7245 49.832C98.3325 50.0373 97.8285 50.14 97.2125 50.14ZM97.4925 49.118C98.1085 49.118 98.6125 48.9173 99.0045 48.516C99.3965 48.1147 99.5925 47.5313 99.5925 46.766V46.374L97.9545 46.612C97.2825 46.7053 96.7738 46.864 96.4285 47.088C96.0832 47.312 95.9105 47.592 95.9105 47.928C95.9105 48.3107 96.0645 48.6047 96.3725 48.81C96.6898 49.0153 97.0632 49.118 97.4925 49.118ZM103.23 50C103.136 50 103.057 49.972 102.992 49.916C102.936 49.8507 102.908 49.7713 102.908 49.678V40.382C102.908 40.2793 102.936 40.2 102.992 40.144C103.057 40.088 103.136 40.06 103.23 40.06H103.846C103.939 40.06 104.014 40.0927 104.07 40.158C104.135 40.214 104.168 40.2887 104.168 40.382V49.678C104.168 49.7713 104.135 49.8507 104.07 49.916C104.014 49.972 103.939 50 103.846 50H103.23ZM110.206 50C110.113 50 110.038 49.972 109.982 49.916C109.926 49.8507 109.898 49.7713 109.898 49.678V40.536C109.898 40.4333 109.926 40.354 109.982 40.298C110.038 40.2327 110.113 40.2 110.206 40.2H113.748C114.803 40.2 115.629 40.4567 116.226 40.97C116.833 41.474 117.136 42.2113 117.136 43.182C117.136 44.1527 116.833 44.89 116.226 45.394C115.629 45.898 114.803 46.15 113.748 46.15H111.228V49.678C111.228 49.7713 111.195 49.8507 111.13 49.916C111.074 49.972 110.999 50 110.906 50H110.206ZM113.678 45.016C115.087 45.016 115.792 44.4047 115.792 43.182C115.792 42.5847 115.615 42.1273 115.26 41.81C114.915 41.4927 114.387 41.334 113.678 41.334H111.228V45.016H113.678ZM120.564 50.14C120.107 50.14 119.682 50.0467 119.29 49.86C118.907 49.6733 118.599 49.4213 118.366 49.104C118.142 48.7773 118.03 48.418 118.03 48.026C118.03 47.41 118.282 46.906 118.786 46.514C119.29 46.122 119.976 45.8607 120.844 45.73L122.944 45.436V45.03C122.944 44.0687 122.389 43.588 121.278 43.588C120.849 43.588 120.503 43.6767 120.242 43.854C119.981 44.022 119.789 44.2227 119.668 44.456C119.631 44.5493 119.589 44.6147 119.542 44.652C119.505 44.68 119.449 44.694 119.374 44.694H118.828C118.744 44.694 118.669 44.666 118.604 44.61C118.548 44.5447 118.52 44.47 118.52 44.386C118.52 44.1713 118.618 43.924 118.814 43.644C119.019 43.3547 119.332 43.1073 119.752 42.902C120.172 42.6873 120.685 42.58 121.292 42.58C122.337 42.58 123.084 42.8227 123.532 43.308C123.989 43.7933 124.218 44.4 124.218 45.128V49.678C124.218 49.7713 124.185 49.8507 124.12 49.916C124.064 49.972 123.989 50 123.896 50H123.28C123.187 50 123.112 49.972 123.056 49.916C123 49.8507 122.972 49.7713 122.972 49.678V49.062C122.767 49.37 122.468 49.6267 122.076 49.832C121.684 50.0373 121.18 50.14 120.564 50.14ZM120.844 49.118C121.46 49.118 121.964 48.9173 122.356 48.516C122.748 48.1147 122.944 47.5313 122.944 46.766V46.374L121.306 46.612C120.634 46.7053 120.125 46.864 119.78 47.088C119.435 47.312 119.262 47.592 119.262 47.928C119.262 48.3107 119.416 48.6047 119.724 48.81C120.041 49.0153 120.415 49.118 120.844 49.118ZM127.369 52.66C127.285 52.66 127.215 52.632 127.159 52.576C127.103 52.52 127.075 52.4547 127.075 52.38C127.075 52.352 127.098 52.268 127.145 52.128L128.237 49.566L125.563 43.252C125.507 43.14 125.479 43.0607 125.479 43.014C125.488 42.93 125.521 42.86 125.577 42.804C125.633 42.748 125.698 42.72 125.773 42.72H126.417C126.566 42.72 126.678 42.7947 126.753 42.944L128.909 48.096L131.121 42.944C131.196 42.7947 131.308 42.72 131.457 42.72H132.087C132.162 42.72 132.227 42.748 132.283 42.804C132.339 42.86 132.367 42.9253 132.367 43C132.367 43.0653 132.344 43.1493 132.297 43.252L128.335 52.436C128.288 52.5107 128.237 52.5667 128.181 52.604C128.134 52.6413 128.069 52.66 127.985 52.66H127.369ZM134.101 50C134.007 50 133.928 49.972 133.863 49.916C133.807 49.8507 133.779 49.7713 133.779 49.678V43.042C133.779 42.9487 133.807 42.874 133.863 42.818C133.928 42.7527 134.007 42.72 134.101 42.72H134.689C134.782 42.72 134.857 42.7527 134.913 42.818C134.969 42.874 134.997 42.9487 134.997 43.042V43.518C135.501 42.8927 136.182 42.58 137.041 42.58C138.067 42.58 138.795 43.0093 139.225 43.868C139.449 43.476 139.766 43.1633 140.177 42.93C140.597 42.6967 141.063 42.58 141.577 42.58C142.342 42.58 142.967 42.8413 143.453 43.364C143.938 43.8867 144.181 44.6427 144.181 45.632V49.678C144.181 49.7713 144.148 49.8507 144.083 49.916C144.027 49.972 143.952 50 143.859 50H143.257C143.163 50 143.084 49.972 143.019 49.916C142.963 49.8507 142.935 49.7713 142.935 49.678V45.758C142.935 45.0113 142.781 44.4793 142.473 44.162C142.165 43.8353 141.759 43.672 141.255 43.672C140.807 43.672 140.419 43.84 140.093 44.176C139.775 44.5027 139.617 45.03 139.617 45.758V49.678C139.617 49.7713 139.584 49.8507 139.519 49.916C139.463 49.972 139.388 50 139.295 50H138.679C138.585 50 138.506 49.972 138.441 49.916C138.385 49.8507 138.357 49.7713 138.357 49.678V45.758C138.357 45.0207 138.193 44.4887 137.867 44.162C137.549 43.8353 137.153 43.672 136.677 43.672C136.229 43.672 135.841 43.8353 135.515 44.162C135.197 44.4887 135.039 45.016 135.039 45.744V49.678C135.039 49.7713 135.006 49.8507 134.941 49.916C134.885 49.972 134.81 50 134.717 50H134.101ZM149.09 50.14C148.138 50.14 147.378 49.846 146.808 49.258C146.239 48.6607 145.926 47.8487 145.87 46.822L145.856 46.346L145.87 45.884C145.926 44.876 146.239 44.0733 146.808 43.476C147.378 42.8787 148.138 42.58 149.09 42.58C150.117 42.58 150.91 42.9067 151.47 43.56C152.04 44.2133 152.324 45.1 152.324 46.22V46.472C152.324 46.5653 152.292 46.6447 152.226 46.71C152.17 46.766 152.096 46.794 152.002 46.794H147.144V46.92C147.172 47.5267 147.359 48.0447 147.704 48.474C148.05 48.9033 148.507 49.118 149.076 49.118C149.515 49.118 149.87 49.034 150.14 48.866C150.42 48.6887 150.63 48.5067 150.77 48.32C150.854 48.208 150.92 48.1427 150.966 48.124C151.013 48.096 151.092 48.082 151.204 48.082H151.82C151.904 48.082 151.974 48.1053 152.03 48.152C152.096 48.1987 152.128 48.2593 152.128 48.334C152.128 48.5393 152.002 48.7867 151.75 49.076C151.498 49.3653 151.139 49.6173 150.672 49.832C150.215 50.0373 149.688 50.14 149.09 50.14ZM151.05 45.842V45.8C151.05 45.1467 150.873 44.6147 150.518 44.204C150.164 43.7933 149.688 43.588 149.09 43.588C148.484 43.588 148.008 43.7933 147.662 44.204C147.317 44.6147 147.144 45.1467 147.144 45.8V45.842H151.05ZM154.349 50C154.255 50 154.176 49.972 154.111 49.916C154.055 49.8507 154.027 49.7713 154.027 49.678V43.042C154.027 42.9487 154.055 42.874 154.111 42.818C154.176 42.7527 154.255 42.72 154.349 42.72H154.951C155.053 42.72 155.133 42.748 155.189 42.804C155.245 42.86 155.273 42.9393 155.273 43.042V43.658C155.553 43.3127 155.875 43.0467 156.239 42.86C156.612 42.6733 157.074 42.58 157.625 42.58C158.521 42.58 159.216 42.8693 159.711 43.448C160.205 44.0173 160.453 44.7733 160.453 45.716V49.678C160.453 49.7713 160.42 49.8507 160.355 49.916C160.299 49.972 160.224 50 160.131 50H159.487C159.393 50 159.314 49.972 159.249 49.916C159.193 49.8507 159.165 49.7713 159.165 49.678V45.8C159.165 45.128 159.001 44.6053 158.675 44.232C158.348 43.8587 157.881 43.672 157.275 43.672C156.677 43.672 156.201 43.8633 155.847 44.246C155.492 44.6193 155.315 45.1373 155.315 45.8V49.678C155.315 49.7713 155.282 49.8507 155.217 49.916C155.161 49.972 155.086 50 154.993 50H154.349ZM165.18 50C163.733 50 163.01 49.1833 163.01 47.55V43.798H161.904C161.811 43.798 161.736 43.77 161.68 43.714C161.624 43.658 161.596 43.5833 161.596 43.49V43.042C161.596 42.9487 161.624 42.874 161.68 42.818C161.736 42.7527 161.811 42.72 161.904 42.72H163.01V40.382C163.01 40.2887 163.038 40.214 163.094 40.158C163.15 40.0927 163.225 40.06 163.318 40.06H163.934C164.027 40.06 164.102 40.0927 164.158 40.158C164.223 40.214 164.256 40.2887 164.256 40.382V42.72H165.992C166.085 42.72 166.16 42.7527 166.216 42.818C166.281 42.874 166.314 42.9487 166.314 43.042V43.49C166.314 43.5833 166.281 43.658 166.216 43.714C166.16 43.77 166.085 43.798 165.992 43.798H164.256V47.452C164.256 47.928 164.331 48.2873 164.48 48.53C164.639 48.7727 164.905 48.894 165.278 48.894H166.132C166.225 48.894 166.3 48.9267 166.356 48.992C166.412 49.048 166.44 49.1227 166.44 49.216V49.678C166.44 49.7713 166.412 49.8507 166.356 49.916C166.3 49.972 166.225 50 166.132 50H165.18Z" fill="#444444"/>
</svg>
