<svg width="19" height="20" viewBox="0 0 19 20" fill="none" xmlns="http://www.w3.org/2000/svg">
<path d="M14.8852 5.01695e-06H17.2802C17.5098 -0.00116686 17.7036 0.20313 17.6848 0.433208C17.6872 1.17344 17.6903 1.91407 17.6833 2.65391C17.688 2.87735 17.4727 3.06875 17.2516 3.03711C17.0591 3.01954 16.9063 2.84141 16.9083 2.65C16.9009 2.21172 16.9079 1.77344 16.9052 1.33516C15.5743 2.66446 14.2442 3.99453 12.9145 5.32461C12.8095 5.42657 12.7055 5.55508 12.5513 5.57657C12.4153 5.60313 12.2825 5.53828 12.1888 5.44336C11.7106 4.96914 11.2372 4.49024 10.7591 4.01602C8.56258 6.21094 6.36688 8.40742 4.17117 10.6035C4.05633 10.7168 3.93953 10.8613 3.76492 10.8699C3.57078 10.8895 3.38094 10.7375 3.35594 10.5441C3.32781 10.4031 3.40086 10.2668 3.49891 10.1707C5.81024 7.85821 8.12274 5.5461 10.4345 3.2336C10.5278 3.13711 10.6559 3.06016 10.7958 3.07891C10.918 3.08594 11.0161 3.16719 11.0997 3.24961C11.5626 3.71446 12.0274 4.17774 12.4911 4.6418C13.7786 3.35586 15.0653 2.06875 16.3512 0.781645C15.9052 0.780864 15.4587 0.780474 15.0122 0.782036C14.8915 0.780864 14.7583 0.778911 14.6602 0.697661C14.5016 0.583989 14.4595 0.342583 14.5696 0.181646C14.636 0.07188 14.7606 0.0136769 14.8852 5.01695e-06Z" fill="white"/>
<path d="M13.8434 6.20976C14.0336 5.90898 14.3848 5.72499 14.7398 5.73007C15.3121 5.72656 15.8844 5.73046 16.4566 5.72812C16.6391 5.72812 16.8273 5.72812 16.9992 5.79687C17.291 5.90312 17.5281 6.1457 17.6266 6.44023C17.698 6.64257 17.6863 6.86054 17.6867 7.07187C17.6863 11.1207 17.6871 15.1691 17.6867 19.218C17.9828 19.2242 18.2797 19.209 18.5754 19.2254C18.7977 19.2371 18.9746 19.4687 18.9215 19.6863C18.8914 19.8648 18.7215 19.9887 18.5465 20H0.375398C0.189851 19.9859 0.0168039 19.8398 0.00313204 19.6492C-0.0261648 19.4363 0.154304 19.2308 0.367194 19.2238C0.674616 19.2109 0.982429 19.223 1.29024 19.218C1.29024 18.0605 1.28985 16.9027 1.29063 15.7449C1.28477 15.4793 1.37227 15.2113 1.54805 15.0105C1.7461 14.7773 2.0504 14.6457 2.35547 14.6461C2.96719 14.643 3.57891 14.6453 4.19102 14.6449C4.44493 14.6406 4.70352 14.7121 4.90313 14.8726C5.15704 15.0703 5.30586 15.3887 5.30391 15.7094C5.30704 16.8789 5.30391 18.0488 5.30547 19.2183C6.03008 19.2187 6.75508 19.2191 7.48008 19.2183C7.48047 17.0574 7.48008 14.8961 7.48008 12.7351C7.48165 12.5391 7.46836 12.3394 7.51915 12.1476C7.60352 11.8144 7.86563 11.5336 8.19141 11.425C8.36172 11.3641 8.54493 11.3641 8.72344 11.3641C9.29571 11.3668 9.86797 11.3617 10.4402 11.3668C10.7449 11.368 11.0481 11.5019 11.243 11.7379C11.4152 11.9359 11.4992 12.1992 11.4961 12.4598C11.4973 14.7129 11.4957 16.9656 11.4965 19.2183C12.2219 19.2187 12.9469 19.2195 13.6719 19.218C13.6719 15.0902 13.6715 10.9629 13.6719 6.83515C13.6691 6.61562 13.7199 6.39296 13.8434 6.20976ZM14.4543 6.7957C14.4516 10.9367 14.4535 15.0777 14.4535 19.2183C15.2707 19.2187 16.0879 19.2187 16.9051 19.2183C16.9047 15.0785 16.9066 10.9383 16.9043 6.79804C16.9145 6.63827 16.7707 6.49843 16.6121 6.51093C15.9871 6.50976 15.3621 6.50898 14.7375 6.51132C14.582 6.50156 14.4449 6.64062 14.4543 6.7957ZM8.26172 12.4594C8.26133 14.7125 8.26172 16.9652 8.26172 19.2183C9.0793 19.2191 9.89727 19.2187 10.7152 19.2187C10.7152 16.9652 10.7152 14.7117 10.7148 12.4582C10.7313 12.3012 10.6059 12.1445 10.4438 12.1484C9.8043 12.1449 9.16446 12.1437 8.525 12.1492C8.36446 12.1488 8.24727 12.3059 8.26172 12.4594ZM2.07305 15.7051C2.06954 16.8762 2.07227 18.0473 2.07188 19.2183C2.88907 19.2191 3.70626 19.2187 4.52344 19.2187C4.52422 18.1121 4.52305 17.0055 4.52383 15.8988C4.52188 15.7957 4.53477 15.6887 4.49962 15.5894C4.45587 15.4848 4.34337 15.4234 4.23243 15.4269C3.60587 15.4262 2.97891 15.4246 2.35274 15.4277C2.20196 15.4215 2.06563 15.5531 2.07305 15.7051Z" fill="white"/>
<path d="M2.25238 11.4992C2.46253 11.3914 2.74964 11.525 2.79378 11.7582C2.86956 12.0141 2.6137 12.2887 2.35316 12.227C2.13948 12.1988 1.98597 11.9613 2.04613 11.7551C2.06995 11.6438 2.15159 11.55 2.25238 11.4992Z" fill="white"/>
</svg>
