<svg width="16" height="16" viewBox="0 0 16 16" fill="none" xmlns="http://www.w3.org/2000/svg">
<path d="M9.18406 0H9.28875C9.51625 0.0196875 9.71375 0.2075 9.73625 0.435937C10.2706 4.56375 10.8025 8.69156 11.3363 12.8194C11.6794 11.4094 12.0181 9.99812 12.3616 8.58844C12.4103 8.37094 12.6219 8.20687 12.845 8.21469C13.7406 8.215 14.6366 8.21344 15.5322 8.21562C15.7672 8.21906 15.9672 8.41719 16 8.64563V8.75469C15.9709 8.99844 15.7481 9.2025 15.5 9.19344C14.7412 9.19438 13.9822 9.19344 13.2231 9.19375C12.7181 11.275 12.2156 13.3566 11.7116 15.4378C11.6781 15.5688 11.6603 15.7119 11.5691 15.8184C11.4919 15.9181 11.3728 15.9734 11.2522 16H11.1375C10.9972 15.9766 10.8631 15.9031 10.7847 15.7825C10.6994 15.6616 10.6988 15.5087 10.6781 15.3681C10.1631 11.3834 9.64906 7.39844 9.13313 3.41375C8.55875 6.11437 7.99 8.81656 7.41687 11.5175C7.37625 11.7416 7.16531 11.9197 6.93625 11.915C6.72313 11.9197 6.5225 11.7681 6.46625 11.5628C5.89531 9.79125 5.32656 8.01875 4.75562 6.24719C4.34719 7.15438 3.94312 8.06406 3.53437 8.97094C3.45437 9.15156 3.25969 9.26656 3.06344 9.25813C2.20969 9.25844 1.35562 9.25875 0.501875 9.25781C0.257812 9.26781 0.0409375 9.07344 0 8.83719V8.715C0.029375 8.48438 0.232187 8.28469 0.468125 8.28063C1.23625 8.27688 2.00437 8.28094 2.77219 8.27875C3.30812 7.08188 3.84344 5.885 4.38 4.68844C4.45594 4.50844 4.64562 4.38688 4.84062 4.39125C5.04531 4.39156 5.23625 4.53625 5.29625 4.73063C5.81156 6.32719 6.32344 7.92438 6.83813 9.52063C7.48375 6.47719 8.12531 3.43281 8.77156 0.389375C8.80969 0.187813 8.98344 0.03125 9.18406 0Z" fill="black"/>
</svg>
