<svg width="18" height="18" viewBox="0 0 18 18" fill="none" xmlns="http://www.w3.org/2000/svg">
<path d="M9.01906 1H9.2C10.1234 1.02219 11.0409 1.32563 11.7812 1.88125C12.56 2.4525 13.1341 3.28844 13.4084 4.21312C14.0181 4.10031 14.6631 4.16938 15.2281 4.42906C15.9516 4.75594 16.535 5.37937 16.8097 6.125C16.9259 6.43156 16.9819 6.75781 17 7.08469V7.25719C16.9747 7.95812 16.71 8.6525 16.2353 9.17188C16.1481 9.24813 16.1644 9.37094 16.1459 9.47406C16.0659 10.0078 15.8391 10.5181 15.4997 10.9378C15.075 11.4656 14.4734 11.8509 13.8128 12.0059C13.0797 12.1856 12.2881 12.0731 11.6219 11.7228C11.1328 12.1834 10.5266 12.5231 9.87031 12.675C8.83219 12.9269 7.69 12.7075 6.82219 12.0844C6.53594 11.8906 6.29187 11.6428 6.06625 11.3831C5.31844 12.0122 4.26438 12.2422 3.32063 11.9941C3.17938 11.9534 3.005 11.925 2.93125 11.7806C2.84094 11.6244 2.92531 11.4031 3.09562 11.3453C3.20781 11.3009 3.32562 11.3478 3.435 11.3769C4.19906 11.5941 5.06531 11.4116 5.67156 10.8962C5.76406 10.8216 5.84125 10.7291 5.93687 10.6581C6.06094 10.5669 6.25094 10.5941 6.34625 10.7144C6.47563 10.8678 6.57969 11.0425 6.72687 11.1806C7.40875 11.9069 8.45219 12.2653 9.43688 12.1216C10.1241 12.0259 10.7784 11.6978 11.2587 11.1959C11.3356 11.1206 11.4163 11.0316 11.5303 11.0203C11.6463 11.0031 11.7487 11.0719 11.8456 11.1244C12.2734 11.3838 12.7844 11.4925 13.2816 11.4591C13.8119 11.4213 14.3266 11.2041 14.725 10.8519C15.2041 10.4328 15.5094 9.82 15.5497 9.18437C15.5537 9.06531 15.5841 8.94375 15.6747 8.86031C16.0147 8.51844 16.2525 8.07437 16.335 7.59844C16.4181 7.13969 16.3638 6.6575 16.1788 6.22937C15.9613 5.72437 15.5647 5.29844 15.0747 5.04844C14.565 4.78281 13.9559 4.715 13.4003 4.86188C13.2775 4.89063 13.1359 4.93 13.0216 4.85469C12.9128 4.79344 12.8772 4.66687 12.8488 4.55437C12.6431 3.68094 12.1069 2.89438 11.3822 2.36781C10.6259 1.81063 9.66 1.54625 8.72563 1.64812C7.38188 1.7825 6.14469 2.68188 5.6125 3.92438C5.55844 4.04719 5.5125 4.1975 5.3775 4.25469C5.27188 4.30781 5.15219 4.27156 5.05062 4.2275C4.61125 4.03719 4.08125 4.04937 3.66125 4.28437C3.12688 4.5575 2.76875 5.14937 2.78906 5.75125C2.78937 5.98875 2.86562 6.21594 2.92781 6.4425C2.95219 6.53438 2.97937 6.635 2.94344 6.72781C2.90594 6.83687 2.80094 6.8975 2.71187 6.96031C2.19062 7.30312 1.81625 7.85781 1.68563 8.46719C1.58563 8.92437 1.61406 9.41063 1.77844 9.85C1.83094 9.97688 1.84906 10.1375 1.74625 10.2447C1.61156 10.4094 1.31844 10.3703 1.23562 10.1731C1.085 9.82719 1.01812 9.44969 1 9.07438V8.955C1.01688 8.42219 1.15281 7.88844 1.42906 7.43C1.64406 7.05594 1.95 6.7425 2.29156 6.4825C2.08625 5.87844 2.1275 5.18813 2.44531 4.63C2.74719 4.08063 3.28844 3.67031 3.89937 3.52938C4.28906 3.43469 4.69937 3.46531 5.08344 3.57094C5.41344 2.86969 5.92656 2.25562 6.5625 1.81187C7.27719 1.30469 8.14406 1.02469 9.01906 1Z" fill="black" stroke="black" stroke-width="0.3"/>
<path d="M8.87981 2.25594C8.99419 2.24375 9.12513 2.23031 9.22106 2.30844C9.36638 2.41 9.38731 2.64063 9.262 2.76625C9.18106 2.86 9.04919 2.86875 8.9345 2.87875C8.17013 2.9275 7.44138 3.34375 7.0045 3.97219C6.93106 4.08563 6.79606 4.16813 6.65763 4.13406C6.45731 4.09969 6.34231 3.84594 6.45356 3.67375C6.987 2.86156 7.91075 2.32406 8.87981 2.25594Z" fill="black" stroke="black" stroke-width="0.3"/>
<path d="M10.0446 2.48406C10.2256 2.38 10.4834 2.50906 10.5052 2.71719C10.5359 2.89906 10.3768 3.08375 10.1906 3.07031C10.0118 3.06844 9.85431 2.89625 9.88462 2.71688C9.89493 2.61906 9.95868 2.53031 10.0446 2.48406Z" fill="black" stroke="black" stroke-width="0.3"/>
<path d="M5.17361 6.08844C5.45205 6.035 5.75049 6.0775 5.99549 6.2225C6.32142 6.40562 6.54924 6.75156 6.58517 7.12406C6.62174 7.44531 6.51705 7.77937 6.30392 8.02281C6.11674 8.24187 5.84642 8.38844 5.55986 8.42344C5.23174 8.46781 4.88674 8.365 4.63736 8.14656C4.33674 7.89281 4.17986 7.48156 4.2358 7.09188C4.29392 6.6025 4.69111 6.18188 5.17361 6.08844ZM5.26517 6.70719C5.0133 6.77031 4.82767 7.02531 4.84924 7.28469C4.85986 7.53563 5.06142 7.76031 5.3083 7.80156C5.54642 7.84906 5.8033 7.71938 5.90986 7.50219C6.01424 7.29906 5.9783 7.03281 5.81924 6.86812C5.68267 6.71719 5.46111 6.65406 5.26517 6.70719Z" fill="black" stroke="black" stroke-width="0.3"/>
<path d="M8.76747 6.08812C9.04591 6.035 9.34465 6.07812 9.58965 6.22375C9.90559 6.40312 10.1303 6.73531 10.1734 7.09719C10.2175 7.41812 10.12 7.75562 9.91153 8.00375C9.71716 8.24062 9.42778 8.39812 9.12215 8.42656C8.80215 8.46187 8.46997 8.35812 8.22809 8.14562C7.92997 7.89344 7.77309 7.48625 7.82684 7.09937C7.88122 6.60625 8.28153 6.18094 8.76747 6.08812ZM8.85684 6.70687C8.63997 6.7625 8.46716 6.95937 8.44372 7.18281C8.41309 7.40406 8.53278 7.63469 8.72903 7.74C8.90747 7.84219 9.14216 7.83187 9.31184 7.71562C9.51372 7.585 9.61028 7.31719 9.53715 7.0875C9.45809 6.80625 9.13903 6.62531 8.85684 6.70687Z" fill="black" stroke="black" stroke-width="0.3"/>
<path d="M12.3602 6.08781C12.914 5.96687 13.5165 6.30625 13.7021 6.84062C13.8177 7.14812 13.7946 7.50375 13.6421 7.79437C13.4981 8.07344 13.2387 8.29125 12.9377 8.38156C12.6437 8.4725 12.314 8.44312 12.0424 8.29781C11.7668 8.15406 11.5515 7.89719 11.4615 7.59937C11.3677 7.30406 11.399 6.97156 11.5449 6.69812C11.7068 6.38594 12.0159 6.15656 12.3602 6.08781ZM12.4524 6.70594C12.2327 6.76031 12.0568 6.95906 12.0352 7.18531C12.0068 7.39906 12.1168 7.62125 12.3024 7.73C12.4837 7.84219 12.729 7.83625 12.9043 7.715C13.1049 7.58406 13.2012 7.3175 13.129 7.08875C13.0506 6.80844 12.734 6.62656 12.4524 6.70594Z" fill="black" stroke="black" stroke-width="0.3"/>
<path d="M2.07517 10.7628C2.28955 10.6506 2.56642 10.8622 2.52455 11.0969C2.50174 11.3269 2.19267 11.4478 2.0208 11.2912C1.83861 11.1616 1.8683 10.8516 2.07517 10.7628Z" fill="black" stroke="black" stroke-width="0.3"/>
<path d="M11.9502 12.6087C12.4327 12.4747 12.9811 12.7403 13.1786 13.1994C13.3827 13.6337 13.2414 14.1953 12.853 14.4784C12.5889 14.6819 12.2255 14.7478 11.907 14.6484C11.6533 14.5731 11.432 14.3975 11.2989 14.1694C11.1414 13.905 11.1114 13.5703 11.2145 13.2812C11.328 12.9531 11.6136 12.6931 11.9502 12.6087ZM12.137 13.2047C11.9152 13.2391 11.747 13.4653 11.7805 13.6878C11.8027 13.9259 12.0477 14.1109 12.283 14.0653C12.5211 14.0334 12.6958 13.7787 12.6395 13.545C12.5977 13.3209 12.3611 13.1597 12.137 13.2047Z" fill="black" stroke="black" stroke-width="0.3"/>
<path d="M10.2331 14.6125C10.6778 14.5137 11.1497 14.8609 11.1903 15.3134C11.2528 15.745 10.9062 16.1784 10.4722 16.2131C10.0559 16.2687 9.63778 15.9459 9.58559 15.53C9.51028 15.1144 9.8184 14.6825 10.2331 14.6125ZM10.3218 15.2341C10.2022 15.2725 10.1597 15.4416 10.2478 15.5319C10.3334 15.6375 10.5243 15.5984 10.5615 15.4675C10.6175 15.3278 10.4597 15.1753 10.3218 15.2341Z" fill="black" stroke="black" stroke-width="0.3"/>
<path d="M8.69587 16.7434C8.65775 16.5713 8.79462 16.3906 8.96993 16.3787C9.15837 16.3522 9.3365 16.5344 9.309 16.7219C9.29868 16.8716 9.16618 16.9872 9.02025 17H8.98243C8.84525 16.9856 8.71962 16.8822 8.69587 16.7434Z" fill="black" stroke="black" stroke-width="0.3"/>
</svg>
