<svg width="23" height="20" viewBox="0 0 23 20" fill="none" xmlns="http://www.w3.org/2000/svg">
<path d="M11.6744 0.165461C11.8232 -0.0221116 12.1233 -0.0561364 12.31 0.0939218C12.4343 0.184655 12.4876 0.338639 12.4998 0.486516C12.7816 3.60197 13.0616 6.71699 13.3438 9.832C13.5711 8.17133 13.7923 6.50935 14.0187 4.84868C14.0352 4.64016 14.1857 4.44299 14.3982 4.40853C14.6534 4.35706 14.9155 4.5551 14.9448 4.81247C15.2388 6.49146 15.5271 8.17133 15.8194 9.85033C16.017 9.14453 16.2115 8.43786 16.4078 7.73163C16.448 7.58942 16.4767 7.44154 16.55 7.31199C16.663 7.08472 16.9862 7.02103 17.1921 7.15626C17.3038 7.22387 17.3662 7.34383 17.4203 7.45812C17.7706 8.2276 18.1243 8.99534 18.4759 9.76483C19.5726 9.76614 20.6692 9.7657 21.7659 9.76483C21.9028 9.76614 22.0525 9.77922 22.1606 9.87301C22.2701 9.95676 22.319 10.0933 22.3343 10.2259V10.2447C22.3159 10.4907 22.1009 10.6944 21.8527 10.6887C20.6753 10.6953 19.498 10.6883 18.3206 10.6922C18.1858 10.6922 18.041 10.6909 17.9259 10.6115C17.8247 10.5483 17.7688 10.4383 17.72 10.3337C17.5023 9.85425 17.2829 9.37529 17.0635 8.89632C16.7681 9.94804 16.4789 11.0015 16.1836 12.0532C16.1369 12.2543 15.9607 12.4257 15.7474 12.4271C15.5088 12.4414 15.2929 12.2495 15.2623 12.0157C15.022 10.6517 14.7903 9.2863 14.55 7.92225C14.2773 9.93931 14.0043 11.9568 13.7312 13.9739C13.7151 14.0821 13.688 14.1955 13.6117 14.2784C13.4625 14.4498 13.1829 14.5026 12.9953 14.3617C12.8357 14.2592 12.792 14.0607 12.782 13.884C12.5595 11.4185 12.3205 8.95477 12.105 6.48928C12.0073 7.72857 11.9423 8.97004 11.8577 10.2106C11.6631 13.2384 11.4672 16.2662 11.274 19.294C11.2583 19.4794 11.2718 19.69 11.1427 19.841C10.9935 20.0272 10.6921 20.0534 10.5102 19.9007C10.3898 19.8091 10.3353 19.6573 10.3257 19.5108C10.0491 15.7802 9.7804 12.0493 9.49991 8.31877C9.2661 10.7699 9.03316 13.2214 8.79935 15.6725C8.78713 15.833 8.71254 15.9966 8.56772 16.0777C8.39105 16.1894 8.14241 16.1558 8.00194 16.0014C7.91557 15.9146 7.88068 15.7925 7.86454 15.6742C7.57707 13.3758 7.29048 11.0774 7.00301 8.77898C6.79188 9.83898 6.58468 10.8999 6.37704 11.9607C6.3452 12.1086 6.33124 12.2722 6.23004 12.3926C6.07692 12.5841 5.7611 12.6103 5.57964 12.4449C5.48585 12.3664 5.44048 12.2486 5.4021 12.1361C5.10547 11.2144 4.80754 10.2926 4.50916 9.37136C4.27797 9.73342 4.05288 10.0994 3.81994 10.461C3.73226 10.6024 3.57392 10.6966 3.40554 10.6935C2.47378 10.6983 1.54159 10.6927 0.60983 10.6961C0.465442 10.697 0.308841 10.6896 0.189754 10.5976C0.0732843 10.516 0.0191935 10.3768 0 10.2412V10.2294C0.00785189 9.97727 0.224651 9.76003 0.480274 9.76832C1.37364 9.76047 2.26701 9.76875 3.16038 9.76483C3.52201 9.19251 3.8797 8.61758 4.24351 8.04701C4.35823 7.84591 4.62651 7.75911 4.83676 7.85813C4.98028 7.91658 5.06447 8.05791 5.11027 8.19969C5.3275 8.87931 5.54169 9.56068 5.76067 10.2399C6.04203 8.82042 6.32164 7.4001 6.60082 5.97978C6.63397 5.82013 6.65186 5.6391 6.77879 5.52176C6.94325 5.35425 7.23726 5.35076 7.40738 5.51172C7.51644 5.60638 7.557 5.75251 7.57402 5.89123C7.80303 7.73642 8.03859 9.58075 8.26629 11.4264C8.54023 8.63939 8.79935 5.8511 9.06675 3.06368C9.09292 2.8604 9.07373 2.62921 9.21244 2.46127C9.35858 2.275 9.65302 2.23618 9.84016 2.38362C9.97277 2.47522 10.0282 2.6375 10.0369 2.79279C10.282 6.11283 10.5255 9.43374 10.7715 12.7542C11.035 8.6804 11.2945 4.60701 11.5554 0.533191C11.565 0.404071 11.5859 0.266663 11.6744 0.165461Z" fill="white"/>
</svg>
